<?xml version="1.0" encoding="UTF-8" standalone="no"?>
<!-- Generator: Adobe Illustrator 19.0.0, SVG Export Plug-In . SVG Version: 6.00 Build 0)  -->

<svg
   xmlns:dc="http://purl.org/dc/elements/1.1/"
   xmlns:cc="http://creativecommons.org/ns#"
   xmlns:rdf="http://www.w3.org/1999/02/22-rdf-syntax-ns#"
   xmlns:svg="http://www.w3.org/2000/svg"
   xmlns="http://www.w3.org/2000/svg"
   xmlns:sodipodi="http://sodipodi.sourceforge.net/DTD/sodipodi-0.dtd"
   xmlns:inkscape="http://www.inkscape.org/namespaces/inkscape"
   version="1.1"
   id="Layer_1"
   x="0px"
   y="0px"
   viewBox="0 0 520 345"
   xml:space="preserve"
   width="520"
   height="345"
   inkscape:version="0.91 r13725"
   sodipodi:docname="clouds.svg"><metadata
     id="metadata43"><rdf:RDF><cc:Work
         rdf:about=""><dc:format>image/svg+xml</dc:format><dc:type
           rdf:resource="http://purl.org/dc/dcmitype/StillImage" /><dc:title></dc:title></cc:Work></rdf:RDF></metadata><defs
     id="defs41" /><sodipodi:namedview
     pagecolor="#e1e1e1"
     bordercolor="#666666"
     borderopacity="1"
     objecttolerance="10"
     gridtolerance="10"
     guidetolerance="10"
     inkscape:pageopacity="0"
     inkscape:pageshadow="2"
     inkscape:window-width="1366"
     inkscape:window-height="705"
     id="namedview39"
     showgrid="false"
     inkscape:zoom="0.6773275"
     inkscape:cx="510.72877"
     inkscape:cy="286.80756"
     inkscape:window-x="0"
     inkscape:window-y="33"
     inkscape:window-maximized="1"
     inkscape:current-layer="Layer_1" /><g
     id="g9"
     transform="translate(0,-167)" /><g
     id="g11"
     transform="translate(0,-167)" /><g
     id="g13"
     transform="translate(0,-167)" /><g
     id="g15"
     transform="translate(0,-167)" /><g
     id="g17"
     transform="translate(0,-167)" /><g
     id="g19"
     transform="translate(0,-167)" /><g
     id="g21"
     transform="translate(0,-167)" /><g
     id="g23"
     transform="translate(0,-167)" /><g
     id="g25"
     transform="translate(0,-167)" /><g
     id="g27"
     transform="translate(0,-167)" /><g
     id="g29"
     transform="translate(0,-167)" /><g
     id="g31"
     transform="translate(0,-167)" /><g
     id="g33"
     transform="translate(0,-167)" /><g
     id="g35"
     transform="translate(0,-167)" /><g
     id="g37"
     transform="translate(0,-167)" /><g
     id="g3"
     transform="translate(4,-118.8385)"><g
       id="g5"><path
         d="m 512,320.126 c 0,-49.185 -40.017,-89.202 -89.202,-89.202 -5.264,0 -10.49,0.458 -15.627,1.368 -1.027,-16.464 -5.53,-32.634 -13.176,-47.163 -2.219,-4.217 -7.435,-5.837 -11.654,-3.617 -4.217,2.22 -5.836,7.436 -3.617,11.654 7.469,14.192 11.416,30.232 11.416,46.388 0,0.867 -0.03,1.73 -0.06,2.589 l -0.026,0.819 c -0.086,2.791 1.184,5.453 3.408,7.141 2.225,1.688 5.127,2.197 7.797,1.36 6.944,-2.176 14.19,-3.28 21.539,-3.28 39.671,0 71.946,32.275 71.946,71.946 0,14.321 -4.238,28.168 -12.088,39.92 -0.301,-0.325 -0.618,-0.632 -0.926,-0.95 -0.341,-0.354 -0.68,-0.71 -1.029,-1.056 -0.232,-0.228 -0.47,-0.448 -0.704,-0.672 -0.545,-0.521 -1.096,-1.034 -1.659,-1.535 -0.088,-0.078 -0.179,-0.154 -0.267,-0.232 -10.506,-9.216 -24.255,-14.821 -39.296,-14.821 -3.14,0 -6.272,0.247 -9.362,0.734 -9.31,-10.528 -22.745,-16.667 -36.962,-16.667 -2.309,0 -4.606,0.161 -6.882,0.481 -4.678,-13.326 -13.048,-25.267 -24.12,-34.229 -13.544,-10.964 -30.616,-17.003 -48.071,-17.003 -39.396,0 -71.931,29.937 -76.049,68.258 -2.269,-0.262 -4.56,-0.395 -6.861,-0.395 -0.969,0 -1.931,0.027 -2.887,0.073 -0.367,0.017 -0.728,0.052 -1.093,0.076 -0.58,0.039 -1.162,0.077 -1.737,0.133 -0.464,0.044 -0.922,0.105 -1.382,0.16 -0.463,0.056 -0.925,0.11 -1.385,0.177 -0.526,0.077 -1.048,0.165 -1.569,0.256 -0.374,0.065 -0.749,0.128 -1.121,0.201 -0.585,0.112 -1.164,0.236 -1.742,0.366 -0.286,0.065 -0.572,0.129 -0.855,0.198 -0.649,0.155 -1.293,0.321 -1.934,0.498 -0.181,0.051 -0.362,0.102 -0.544,0.154 -0.729,0.209 -1.453,0.429 -2.17,0.665 -0.044,0.015 -0.088,0.03 -0.133,0.045 -18.265,6.058 -32.598,20.797 -38.089,39.313 -0.009,0.028 -0.016,0.057 -0.024,0.085 -0.243,0.821 -0.471,1.648 -0.677,2.484 -0.001,0.003 -0.001,0.008 -0.002,0.011 -0.424,1.713 -0.784,3.451 -1.054,5.219 l -81.926,0 c -40.19,0 -72.887,-32.698 -72.887,-72.889 0,-40.19 32.697,-72.887 72.887,-72.887 6.194,0 12.365,0.783 18.343,2.328 3.497,0.899 7.193,-0.469 9.251,-3.441 10.552,-15.234 27.891,-24.33 46.381,-24.33 6.078,0 12.089,0.977 17.869,2.906 2.31,0.772 4.842,0.531 6.967,-0.669 2.124,-1.196 3.641,-3.237 4.179,-5.614 1.972,-8.724 5.028,-16.94 9,-24.536 0.245,-0.327 0.47,-0.671 0.669,-1.034 12.807,-23.498 34.856,-41.121 60.495,-48.35 0.305,-0.086 0.603,-0.19 0.893,-0.307 8.37,-2.244 17.157,-3.444 26.206,-3.444 27.917,0 53.798,11.238 72.876,31.644 3.254,3.48 8.714,3.665 12.196,0.41 3.482,-3.255 3.664,-8.715 0.41,-12.196 -22.053,-23.586 -53.21,-37.114 -85.482,-37.114 -8.404,0 -24.887,2.695 -24.887,2.695 l -17.467,5.247 c 0,0 -0.593,0.25 -0.892,0.37 -0.547,0.217 -1.086,0.45 -1.63,0.675 -0.85,0.355 -1.7,0.709 -2.54,1.083 -1.004,0.444 -1.996,0.914 -2.989,1.386 -0.341,0.164 -0.685,0.321 -1.025,0.489 -7.837,3.831 -15.268,8.525 -22.102,14.058 -9.258,7.495 -17.272,16.358 -23.813,26.178 -0.263,0.394 -0.516,0.794 -0.774,1.19 -0.548,0.844 -1.616,2.551 -1.616,2.551 l -0.429,0.677 -8.567,17.256 c 0,0 -2.155,5.711 -3.058,8.63 -4.763,-0.958 -9.611,-1.44 -14.492,-1.44 -22.175,0 -43.077,10.009 -57.011,27.041 -5.583,-1.061 -11.264,-1.598 -16.963,-1.598 C 40.439,229.037 0,269.477 0,319.181 c 0,49.706 40.439,90.146 90.144,90.146 l 81.834,0 c 4.041,28.667 28.722,50.797 58.487,50.797 l 151.06,0 c 4.765,0 8.628,-3.863 8.628,-8.628 0,-4.765 -3.863,-8.628 -8.628,-8.628 l -151.06,0 c -23.061,0 -41.822,-18.762 -41.822,-41.822 0,-0.245 0.014,-0.487 0.018,-0.731 0.01,-0.548 0.023,-1.096 0.053,-1.639 0.008,-0.126 0.021,-0.251 0.029,-0.378 0.039,-0.589 0.083,-1.176 0.146,-1.758 0.006,-0.056 0.015,-0.111 0.022,-0.167 2.341,-20.851 20.134,-37.155 41.555,-37.155 4.276,0 8.49,0.642 12.527,1.907 2.67,0.838 5.578,0.327 7.802,-1.365 2.226,-1.692 3.493,-4.358 3.402,-7.154 l -0.017,-0.472 c -0.018,-0.513 -0.038,-1.026 -0.038,-1.544 0,-32.662 26.572,-59.235 59.233,-59.235 27.429,0 51.721,19.396 57.76,46.122 0.538,2.378 2.056,4.418 4.18,5.615 2.126,1.197 4.657,1.44 6.968,0.668 3.286,-1.098 6.707,-1.653 10.166,-1.653 10.522,0 20.388,5.177 26.392,13.846 2.06,2.975 5.752,4.348 9.256,3.442 3.474,-0.899 7.067,-1.356 10.676,-1.356 0.841,0 1.675,0.032 2.507,0.08 0.311,0.018 0.619,0.046 0.927,0.071 0.497,0.039 0.992,0.087 1.485,0.143 0.403,0.046 0.806,0.096 1.206,0.153 0.33,0.047 0.657,0.105 0.985,0.16 10.927,1.853 20.447,7.887 26.838,16.407 0.025,0.032 0.049,0.066 0.073,0.098 5.271,7.069 8.395,15.826 8.395,25.301 0,23.388 -19.029,42.415 -42.417,42.415 l -29.211,0 c -4.765,0 -8.628,3.863 -8.628,8.628 0,4.765 3.863,8.628 8.628,8.628 l 29.211,0 c 32.904,0 59.673,-26.768 59.673,-59.672 0,-8.986 -2.009,-17.509 -5.582,-25.16 C 505.231,359.603 512,340.247 512,320.126 Z"
         id="path7"
         inkscape:connector-curvature="0"
         style="fill:#ffffff"
         sodipodi:nodetypes="ssccccsccccssccccccscsccscsccccccccccccccccccsssccscccccccscscsccccccccccccccsccsscsssssscccccsccccsscccsccscccccccssssssscs" /></g></g></svg>