<?xml version="1.0" encoding="UTF-8" standalone="no"?>
<!-- Generator: Adobe Illustrator 19.0.0, SVG Export Plug-In . SVG Version: 6.00 Build 0)  -->

<svg
   xmlns:dc="http://purl.org/dc/elements/1.1/"
   xmlns:cc="http://creativecommons.org/ns#"
   xmlns:rdf="http://www.w3.org/1999/02/22-rdf-syntax-ns#"
   xmlns:svg="http://www.w3.org/2000/svg"
   xmlns="http://www.w3.org/2000/svg"
   xmlns:sodipodi="http://sodipodi.sourceforge.net/DTD/sodipodi-0.dtd"
   xmlns:inkscape="http://www.inkscape.org/namespaces/inkscape"
   version="1.1"
   id="Layer_1"
   x="0px"
   y="0px"
   viewBox="0 0 512.011 337.00724"
   xml:space="preserve"
   width="512"
   height="337"
   inkscape:version="0.91 r13725"
   sodipodi:docname="cloudy.svg"><metadata
     id="metadata67"><rdf:RDF><cc:Work
         rdf:about=""><dc:format>image/svg+xml</dc:format><dc:type
           rdf:resource="http://purl.org/dc/dcmitype/StillImage" /><dc:title></dc:title></cc:Work></rdf:RDF></metadata><defs
     id="defs65" /><sodipodi:namedview
     pagecolor="#e8e8e8"
     bordercolor="#666666"
     borderopacity="1"
     objecttolerance="10"
     gridtolerance="10"
     guidetolerance="10"
     inkscape:pageopacity="0"
     inkscape:pageshadow="2"
     inkscape:window-width="1366"
     inkscape:window-height="705"
     id="namedview63"
     showgrid="false"
     inkscape:zoom="0.95788574"
     inkscape:cx="392.75953"
     inkscape:cy="172.48273"
     inkscape:window-x="0"
     inkscape:window-y="33"
     inkscape:window-maximized="1"
     inkscape:current-layer="Layer_1" /><g
     id="g3"
     transform="matrix(1.0869554,0,0,1.0869554,-22.25998,-4.6516404)"><g
       id="g5"><g
         id="g7"><path
           d="m 353.437,55.403 c 4.758,0 8.616,-3.858 8.616,-8.616 l 0,-25.699 c 0,-4.758 -3.858,-8.616 -8.616,-8.616 -4.758,0 -8.616,3.858 -8.616,8.616 l 0,25.698 c 0,4.76 3.858,8.617 8.616,8.617 z"
           id="path15"
           inkscape:connector-curvature="0"
           style="fill:#ffffff" /><path
           d="m 294.794,64.812 c 1.595,2.763 4.491,4.309 7.469,4.309 1.461,0 2.942,-0.373 4.299,-1.156 4.12,-2.379 5.533,-7.649 3.153,-11.769 L 296.864,33.938 c -2.378,-4.119 -7.646,-5.534 -11.769,-3.153 -4.12,2.379 -5.533,7.649 -3.153,11.769 l 12.852,22.258 z"
           id="path17"
           inkscape:connector-curvature="0"
           style="fill:#ffffff" /><path
           d="m 412.08,233.501 c -2.378,-4.118 -7.646,-5.533 -11.769,-3.153 -4.12,2.379 -5.533,7.649 -3.153,11.769 l 12.852,22.258 c 1.595,2.763 4.491,4.309 7.469,4.309 1.461,0 2.942,-0.373 4.299,-1.156 4.12,-2.379 5.533,-7.649 3.153,-11.769 L 412.08,233.501 Z"
           id="path19"
           inkscape:connector-curvature="0"
           style="fill:#ffffff" /><path
           d="m 238.22,92.583 22.255,12.85 c 1.357,0.784 2.838,1.156 4.299,1.156 2.978,0 5.874,-1.545 7.469,-4.309 2.38,-4.12 0.967,-9.39 -3.153,-11.769 l -22.255,-12.85 c -4.119,-2.379 -9.39,-0.968 -11.769,3.153 -2.379,4.122 -0.967,9.39 3.154,11.769 z"
           id="path21"
           inkscape:connector-curvature="0"
           style="fill:#ffffff" /><path
           d="m 446.397,192.88 c -4.12,-2.376 -9.39,-0.966 -11.77,3.154 -2.379,4.122 -0.967,9.391 3.154,11.77 l 22.258,12.85 c 1.357,0.783 2.838,1.154 4.299,1.154 2.978,0 5.874,-1.545 7.471,-4.309 2.379,-4.121 0.966,-9.391 -3.154,-11.77 L 446.397,192.88 Z"
           id="path23"
           inkscape:connector-curvature="0"
           style="fill:#ffffff" /><path
           d="m 447.19,149.157 c 0,4.758 3.858,8.616 8.616,8.616 l 25.7,0 c 4.758,0 8.616,-3.858 8.616,-8.616 0,-4.758 -3.858,-8.616 -8.616,-8.616 l -25.7,0 c -4.758,0 -8.616,3.858 -8.616,8.616 z"
           id="path25"
           inkscape:connector-curvature="0"
           style="fill:#ffffff" /><path
           d="m 442.098,106.589 c 1.46,0 2.942,-0.373 4.299,-1.154 l 22.258,-12.85 c 4.12,-2.379 5.533,-7.648 3.154,-11.77 -2.379,-4.119 -7.647,-5.532 -11.77,-3.154 l -22.258,12.85 c -4.12,2.379 -5.533,7.648 -3.154,11.77 1.597,2.762 4.493,4.308 7.471,4.308 z"
           id="path27"
           inkscape:connector-curvature="0"
           style="fill:#ffffff" /><path
           d="m 400.311,67.965 c 1.357,0.784 2.838,1.156 4.299,1.156 2.978,0 5.874,-1.545 7.469,-4.309 l 12.852,-22.258 c 2.38,-4.12 0.967,-9.39 -3.153,-11.769 -4.12,-2.38 -9.391,-0.967 -11.769,3.153 l -12.852,22.258 c -2.378,4.12 -0.966,9.39 3.154,11.769 z"
           id="path29"
           inkscape:connector-curvature="0"
           style="fill:#ffffff" /><path
           d="m 86.527,306.134 201.937,0 c 4.758,0 8.616,-3.858 8.616,-8.616 0,-4.758 -3.858,-8.616 -8.616,-8.616 l -201.937,0 c -26.142,0 -47.41,-21.268 -47.41,-47.409 0,-26.141 21.268,-47.409 47.41,-47.409 4.838,0 9.615,0.728 14.2,2.162 2.667,0.835 5.566,0.325 7.786,-1.363 2.222,-1.688 3.487,-4.348 3.398,-7.137 l -0.019,-0.57 c -0.019,-0.567 -0.041,-1.135 -0.041,-1.708 0,-36.801 29.939,-66.74 66.74,-66.74 31.402,0 58.164,21.369 65.079,51.965 0.536,2.374 2.052,4.411 4.173,5.606 2.12,1.198 4.649,1.44 6.957,0.668 3.746,-1.249 7.647,-1.884 11.594,-1.884 1.907,0 3.791,0.166 5.645,0.456 0.401,0.062 0.801,0.122 1.198,0.197 0.481,0.092 0.96,0.2 1.436,0.311 0.369,0.086 0.736,0.179 1.101,0.276 0.453,0.121 0.907,0.242 1.354,0.38 0.271,0.084 0.54,0.179 0.809,0.268 0.379,0.126 0.758,0.254 1.133,0.393 0.29,0.108 0.577,0.223 0.864,0.337 0.344,0.137 0.685,0.278 1.024,0.425 0.299,0.13 0.597,0.264 0.892,0.403 0.318,0.148 0.632,0.303 0.945,0.46 0.302,0.152 0.604,0.303 0.901,0.463 0.297,0.159 0.588,0.328 0.881,0.495 0.302,0.173 0.605,0.342 0.901,0.523 0.276,0.169 0.544,0.35 0.815,0.526 0.568,0.368 1.123,0.752 1.67,1.15 0.251,0.183 0.505,0.361 0.751,0.55 0.285,0.22 0.561,0.451 0.84,0.678 0.252,0.206 0.505,0.41 0.752,0.624 0.264,0.227 0.521,0.463 0.78,0.699 0.254,0.233 0.507,0.467 0.756,0.708 0.238,0.23 0.474,0.465 0.706,0.702 0.263,0.268 0.521,0.543 0.775,0.82 0.208,0.225 0.416,0.45 0.617,0.682 0.286,0.327 0.563,0.663 0.839,1.002 0.159,0.196 0.323,0.388 0.479,0.587 0.427,0.546 0.842,1.104 1.24,1.678 1.543,2.226 4.003,3.555 6.611,3.698 0.869,0.047 1.754,-0.037 2.628,-0.263 3.345,-0.865 6.788,-1.345 10.256,-1.477 0.042,-0.001 0.083,0.003 0.124,0.002 l 0.649,-0.026 c 0.354,-0.016 0.709,-0.033 1.067,-0.033 0.769,0 1.533,0.023 2.292,0.058 0.308,0.015 0.613,0.041 0.92,0.061 0.437,0.029 0.876,0.059 1.31,0.1 0.397,0.038 0.793,0.084 1.188,0.131 0.323,0.039 0.646,0.079 0.967,0.124 0.463,0.066 0.924,0.137 1.383,0.214 0.223,0.038 0.445,0.079 0.667,0.12 0.537,0.1 1.073,0.204 1.604,0.321 0.083,0.018 0.166,0.039 0.249,0.057 7.924,1.799 15.18,5.573 21.154,10.821 0.083,0.073 0.169,0.144 0.252,0.219 0.34,0.304 0.672,0.617 1.005,0.93 0.219,0.207 0.437,0.411 0.653,0.621 0.254,0.248 0.502,0.502 0.751,0.755 0.294,0.302 0.585,0.604 0.87,0.912 0.181,0.195 0.361,0.392 0.539,0.589 0.362,0.404 0.717,0.814 1.066,1.23 0.103,0.123 0.208,0.246 0.309,0.369 3.377,4.118 6.088,8.804 7.958,13.893 0.006,0.016 0.012,0.032 0.018,0.048 0.261,0.713 0.505,1.433 0.732,2.161 0.008,0.024 0.016,0.048 0.024,0.072 1.402,4.506 2.158,9.293 2.158,14.253 0,26.503 -21.562,48.066 -48.063,48.066 -4.758,0 -8.616,3.858 -8.616,8.616 0,4.758 3.858,8.616 8.616,8.616 l 2.343,0 c 0.452,0 0.897,-0.034 1.33,-0.102 34.302,-1.912 61.621,-30.423 61.621,-65.195 0,-1.74 -0.089,-3.46 -0.223,-5.167 0.128,-0.044 0.266,-0.086 0.393,-0.13 0.275,-0.094 0.548,-0.192 0.774,-0.274 0.656,-0.232 1.306,-0.473 1.987,-0.732 l 0.6,-0.229 c 0.844,-0.328 1.684,-0.669 2.476,-1.008 l 0.467,-0.203 c 0.678,-0.291 1.351,-0.592 2.078,-0.924 l 0.698,-0.328 c 0.638,-0.302 1.271,-0.608 1.867,-0.909 l 0.579,-0.288 c 0.795,-0.405 1.582,-0.82 2.354,-1.242 l 0.403,-0.224 c 0.039,-0.022 0.079,-0.043 0.118,-0.066 0.61,-0.34 1.218,-0.686 1.866,-1.064 l 0.312,-0.18 c 0.08,-0.047 0.167,-0.102 0.255,-0.158 4.517,-2.689 8.817,-5.779 12.788,-9.188 0.108,-0.087 0.212,-0.178 0.315,-0.27 0.557,-0.479 1.106,-0.969 1.65,-1.464 0.028,-0.025 0.057,-0.052 0.084,-0.076 0.551,-0.503 1.095,-1.01 1.603,-1.498 l 0.505,-0.491 c 0.387,-0.376 0.776,-0.755 1.141,-1.12 0.163,-0.164 0.323,-0.33 0.482,-0.494 l 0.128,-0.132 c 0.337,-0.346 0.674,-0.693 1.037,-1.075 l 0.68,-0.732 c 0.294,-0.319 0.589,-0.638 0.817,-0.895 0.235,-0.256 0.465,-0.519 0.666,-0.748 0.297,-0.337 0.596,-0.678 0.887,-1.019 l 0.638,-0.755 c 0.284,-0.339 0.568,-0.687 0.857,-1.042 l 0.62,-0.769 c 0.282,-0.355 0.559,-0.713 0.784,-1.007 0.205,-0.262 0.407,-0.524 0.63,-0.818 0.25,-0.335 0.499,-0.672 0.745,-1.01 l 0.613,-0.841 c 0.3,-0.42 0.594,-0.842 0.856,-1.224 l 0.1,-0.144 c 0.13,-0.186 0.258,-0.372 0.349,-0.506 0.382,-0.559 0.753,-1.124 1.093,-1.651 l 0.102,-0.154 c 0.039,-0.057 0.075,-0.113 0.112,-0.171 0.407,-0.638 0.807,-1.282 1.22,-1.96 l 0.348,-0.588 c 0.278,-0.465 0.552,-0.928 0.812,-1.383 l 0.636,-1.139 c 0.165,-0.296 0.331,-0.593 0.504,-0.915 0.152,-0.284 0.302,-0.571 0.444,-0.841 0.208,-0.397 0.416,-0.795 0.64,-1.235 l 0.437,-0.881 c 0.194,-0.395 0.388,-0.793 0.593,-1.226 l 0.416,-0.888 c 0.187,-0.406 0.37,-0.812 0.543,-1.203 0.141,-0.319 0.282,-0.638 0.406,-0.928 l 0.502,-1.189 c 0.016,-0.036 0.03,-0.072 0.045,-0.109 l 0.346,-0.851 c 0.133,-0.331 0.261,-0.662 0.388,-0.995 l 0.477,-1.249 c 0.165,-0.451 0.325,-0.904 0.47,-1.317 l 0.316,-0.893 c 0.182,-0.535 0.355,-1.073 0.514,-1.569 l 0.047,-0.146 c 0.063,-0.187 0.124,-0.375 0.162,-0.502 0.237,-0.752 0.46,-1.508 0.684,-2.293 l 0.14,-0.515 c 0.162,-0.588 0.322,-1.178 0.465,-1.736 0.061,-0.236 0.117,-0.472 0.174,-0.708 l 0.04,-0.166 c 0.12,-0.49 0.24,-0.981 0.354,-1.483 l 0.219,-1.005 c 0.097,-0.449 0.194,-0.896 0.28,-1.333 l 0.19,-0.99 c 0.086,-0.454 0.169,-0.907 0.25,-1.372 l 0.523,-3.425 c 0.063,-0.459 0.118,-0.92 0.174,-1.386 l 0.115,-1.014 c 0.045,-0.414 0.084,-0.828 0.123,-1.243 l 0.014,-0.151 c 0.032,-0.338 0.061,-0.674 0.094,-1.051 0.039,-0.493 0.072,-0.991 0.106,-1.505 l 0.059,-0.947 c 0.023,-0.449 0.041,-0.9 0.057,-1.349 l 0.041,-1.106 c 0.023,-0.823 0.034,-1.646 0.034,-2.474 0,-8.498 -1.166,-16.914 -3.468,-25.011 -5.431,-19.123 -17.234,-36.245 -33.234,-48.211 -15.884,-11.88 -34.792,-18.159 -54.68,-18.159 -19.886,0 -38.793,6.279 -54.678,18.159 -15.999,11.965 -27.803,29.087 -33.234,48.211 -2.301,8.101 -3.468,16.516 -3.468,25.011 0,0.825 0.013,1.643 0.033,2.463 l 0.042,1.119 c 0.017,0.449 0.033,0.899 0.058,1.358 l 0.061,0.987 c 0.032,0.486 0.065,0.972 0.104,1.461 0.028,0.35 0.061,0.696 0.086,0.965 0.014,0.165 0.032,0.325 0.047,0.489 -1.47,0.107 -2.934,0.269 -4.386,0.495 -5.082,-14.932 -14.377,-28.324 -26.741,-38.332 -14.867,-12.036 -33.608,-18.664 -52.772,-18.664 -43.583,0 -79.517,33.374 -83.587,75.908 -2.8,-0.368 -5.631,-0.554 -8.476,-0.554 -35.644,0 -64.641,28.998 -64.641,64.64 0,35.642 28.996,64.641 64.64,64.641 z M 371.918,187.636 c -0.457,0.219 -0.915,0.436 -1.38,0.64 -0.017,0.008 -0.186,0.081 -0.204,0.088 -0.411,0.18 -0.828,0.35 -1.334,0.552 l -0.279,0.11 c -0.444,0.172 -0.888,0.338 -1.339,0.497 -0.081,0.026 -0.156,0.052 -0.22,0.073 -0.438,0.15 -0.881,0.292 -1.327,0.427 -0.047,0.015 -0.096,0.029 -0.143,0.045 l -0.238,0.072 c -0.492,0.145 -0.987,0.285 -1.429,0.398 -0.042,0.01 -0.106,0.025 -0.168,0.042 -0.467,0.116 -0.939,0.227 -1.497,0.347 l -0.303,0.066 c -0.509,0.106 -1.02,0.205 -1.537,0.292 -0.034,0.006 -0.072,0.013 -0.11,0.019 -0.015,0.002 -0.028,0.005 -0.043,0.008 -9.31,-8.019 -20.542,-13.17 -32.572,-15.007 -0.071,-0.011 -0.142,-0.018 -0.213,-0.029 -0.923,-0.138 -1.851,-0.256 -2.783,-0.355 -0.317,-0.033 -0.635,-0.059 -0.953,-0.088 -0.078,-0.008 -0.155,-0.015 -0.233,-0.021 -0.252,-0.023 -0.502,-0.051 -0.755,-0.07 -0.372,-0.028 -0.744,-0.047 -1.117,-0.069 -0.302,-0.018 -0.602,-0.038 -0.905,-0.052 -0.254,-0.012 -0.509,-0.023 -0.764,-0.032 -0.115,-0.004 -0.23,-0.014 -0.346,-0.017 -2.425,-3.076 -4.406,-6.445 -5.896,-10.032 -0.032,-0.081 -0.069,-0.16 -0.106,-0.242 -0.143,-0.351 -0.283,-0.715 -0.438,-1.13 l -0.091,-0.249 c -0.142,-0.382 -0.276,-0.767 -0.414,-1.179 l -0.13,-0.393 c -0.16,-0.494 -0.316,-0.991 -0.458,-1.487 -0.482,-1.701 -0.863,-3.443 -1.129,-5.191 -0.06,-0.388 -0.112,-0.779 -0.162,-1.176 -0.04,-0.325 -0.078,-0.652 -0.11,-0.952 -0.146,-1.444 -0.22,-2.919 -0.22,-4.382 0,-0.498 0.014,-0.994 0.03,-1.516 l 0.011,-0.316 c 0.022,-0.489 0.047,-0.978 0.083,-1.45 0.038,-0.488 0.085,-0.975 0.145,-1.518 l 0.022,-0.185 c 10e-4,-0.004 0.014,-0.108 0.014,-0.112 0.113,-0.956 0.257,-1.905 0.444,-2.892 l 0.025,-0.14 c 0.011,-0.05 0.022,-0.098 0.03,-0.148 0.182,-0.929 0.394,-1.857 0.633,-2.754 l 0.087,-0.319 c 0.253,-0.919 0.536,-1.827 0.825,-2.658 l 0.122,-0.347 c 0.318,-0.887 0.662,-1.761 1.052,-2.661 l 0.108,-0.248 c 0.369,-0.835 0.775,-1.676 1.205,-2.501 l 0.156,-0.293 c 0.426,-0.804 0.891,-1.61 1.395,-2.423 l 0.15,-0.242 c 0.524,-0.83 1.073,-1.638 1.63,-2.402 1.683,-2.314 3.609,-4.469 5.72,-6.404 0.008,-0.006 0.016,-0.014 0.024,-0.022 0.006,-0.006 0.014,-0.013 0.022,-0.019 l 4.25,-3.409 c 0.046,-0.032 0.094,-0.066 0.14,-0.099 l 1.177,-0.793 4.25,-2.425 c 0.057,-0.027 0.113,-0.055 0.17,-0.083 l 2.31,-1.054 c 0.277,-0.115 0.554,-0.229 0.795,-0.326 l 2.042,-0.743 c 0.058,-0.019 0.197,-0.066 0.254,-0.085 l 3.557,-1.007 4.05,-0.748 c 0.044,-0.005 0.158,-0.02 0.202,-0.026 0.072,-0.009 0.12,-0.016 0.192,-0.026 0.054,-0.005 0.107,-0.012 0.158,-0.019 l 2.069,-0.202 c 0.191,-0.015 0.381,-0.026 0.632,-0.04 l 1.48,-0.065 c 0.37,-0.01 0.74,-0.014 1.04,-0.016 0.37,0.002 0.741,0.006 1.108,0.015 0.009,10e-4 0.107,0.004 0.115,0.004 l 1.425,0.065 c 0.193,0.011 0.386,0.023 0.575,0.037 l 2.077,0.204 c 0.049,0.006 0.074,0.011 0.124,0.016 0.068,0.01 0.233,0.03 0.3,0.039 0.039,0.005 0.079,0.011 0.117,0.016 l 1.395,0.212 6.114,1.511 c 0.008,0.002 0.202,0.068 0.209,0.069 0.057,0.019 0.114,0.038 0.171,0.056 l 0.624,0.218 c 0.018,0.006 0.115,0.041 0.132,0.047 l 0.83,0.308 c 0.026,0.011 0.104,0.04 0.13,0.05 l 0.26,0.099 c 0.282,0.112 0.561,0.227 0.843,0.344 l 2.319,1.059 c 0.038,0.019 0.075,0.038 0.114,0.056 l 1.274,0.656 4.168,2.565 c 0.054,0.038 0.108,0.075 0.162,0.113 l 3.329,2.593 c 0.006,0.005 0.107,0.088 0.112,0.095 l 0.81,0.72 c 0.008,0.006 0.014,0.013 0.021,0.019 0.01,0.008 0.018,0.016 0.026,0.023 2.111,1.933 4.033,4.086 5.72,6.405 0.562,0.77 1.107,1.576 1.64,2.42 l 0.156,0.25 c 0.48,0.776 0.943,1.581 1.411,2.458 l 0.065,0.121 c 0.018,0.037 0.037,0.073 0.056,0.11 0.429,0.823 0.836,1.665 1.189,2.459 l 0.151,0.348 c 0.363,0.838 0.709,1.717 1.03,2.609 l 0.102,0.29 c 0.31,0.896 0.591,1.803 0.85,2.741 l 0.081,0.295 c 0.247,0.936 0.459,1.857 0.63,2.735 0.01,0.048 0.021,0.108 0.031,0.156 l 0.037,0.196 c 0.178,0.953 0.323,1.905 0.432,2.837 l 0.04,0.339 c 0.054,0.489 0.102,0.981 0.139,1.444 0.036,0.486 0.064,0.975 0.086,1.54 l 0.012,0.302 c 0.017,0.487 0.028,0.978 0.028,1.47 0,1.457 -0.074,2.932 -0.221,4.379 -0.031,0.31 -0.068,0.621 -0.11,0.961 -0.048,0.392 -0.101,0.783 -0.162,1.182 -0.265,1.734 -0.644,3.479 -1.124,5.174 -0.144,0.503 -0.298,0.999 -0.446,1.455 l -0.153,0.458 c -0.127,0.381 -0.26,0.76 -0.421,1.193 l -0.066,0.186 c -0.016,0.041 -0.031,0.082 -0.046,0.123 -0.128,0.341 -0.26,0.682 -0.397,1.019 -0.038,0.083 -0.074,0.168 -0.11,0.253 -1.661,4.002 -3.935,7.734 -6.759,11.094 -0.069,0.082 -0.139,0.169 -0.208,0.26 -0.039,0.044 -0.079,0.088 -0.117,0.132 -0.016,0.019 -0.072,0.083 -0.088,0.102 l -0.209,0.245 c -0.336,0.38 -0.676,0.755 -1.01,1.108 l -0.102,0.106 c -0.033,0.033 -0.067,0.068 -0.099,0.102 -0.298,0.312 -0.604,0.62 -0.957,0.967 l -0.18,0.18 c -0.352,0.339 -0.705,0.674 -1.067,1.003 l -0.218,0.193 c -0.331,0.292 -0.661,0.582 -1.007,0.871 l -0.246,0.207 c -0.392,0.323 -0.788,0.643 -1.153,0.923 l -0.211,0.158 c -0.35,0.265 -0.703,0.526 -1.033,0.76 l -0.239,0.17 c -0.031,0.023 -0.064,0.044 -0.095,0.067 -0.395,0.277 -0.795,0.55 -1.201,0.814 l -0.225,0.142 c -0.369,0.238 -0.742,0.47 -1.12,0.696 -0.045,0.026 -0.089,0.054 -0.134,0.081 l -0.201,0.117 c -0.424,0.25 -0.855,0.498 -1.273,0.722 l -0.201,0.107 c -0.403,0.214 -0.81,0.422 -1.304,0.667 l -0.212,0.102 z m -89.819,-58.782 c 4.406,-15.51 13.986,-29.403 26.979,-39.119 12.883,-9.633 28.223,-14.726 44.36,-14.726 16.138,0 31.476,5.093 44.359,14.726 12.991,9.716 22.573,23.609 26.979,39.12 1.865,6.566 2.811,13.396 2.811,20.303 0,0.674 -0.011,1.344 -0.028,2.024 l -0.034,0.913 c -0.014,0.361 -0.026,0.723 -0.045,1.072 l -0.051,0.795 c -0.025,0.4 -0.051,0.799 -0.08,1.158 l -0.092,1.021 c -0.03,0.326 -0.06,0.653 -0.095,0.965 l -0.099,0.869 c -0.044,0.374 -0.09,0.747 -0.138,1.1 l -0.427,2.798 c -0.065,0.369 -0.132,0.738 -0.203,1.115 l -0.159,0.832 c -0.069,0.35 -0.144,0.697 -0.226,1.076 l -0.174,0.802 c -0.089,0.395 -0.186,0.789 -0.289,1.205 l -0.164,0.673 c -0.122,0.48 -0.252,0.957 -0.377,1.406 l -0.117,0.433 c -0.174,0.613 -0.353,1.222 -0.562,1.891 l -0.158,0.482 c -0.14,0.437 -0.28,0.872 -0.417,1.277 l -0.25,0.704 c -0.132,0.377 -0.263,0.751 -0.373,1.05 l -0.423,1.104 c -0.088,0.234 -0.178,0.466 -0.279,0.717 l -0.741,1.786 c -0.107,0.247 -0.213,0.491 -0.332,0.755 -0.143,0.324 -0.289,0.646 -0.436,0.968 l -0.35,0.749 c -0.155,0.327 -0.314,0.653 -0.479,0.988 l -0.345,0.697 c -0.166,0.328 -0.337,0.656 -0.527,1.016 l -1.271,2.324 c -0.213,0.374 -0.433,0.742 -0.662,1.126 l -0.279,0.473 c -0.322,0.529 -0.648,1.054 -0.98,1.576 l -0.169,0.255 c -0.286,0.443 -0.575,0.884 -0.909,1.374 l -0.363,0.521 c -0.228,0.333 -0.457,0.662 -0.673,0.966 l -0.52,0.713 c -0.205,0.279 -0.409,0.559 -0.596,0.807 -0.149,0.196 -0.296,0.389 -0.499,0.647 -0.224,0.292 -0.45,0.582 -0.666,0.855 l -0.492,0.61 c -0.232,0.285 -0.465,0.569 -0.73,0.885 l -0.471,0.557 c -0.239,0.279 -0.479,0.557 -0.751,0.864 -0.152,0.173 -0.304,0.348 -0.519,0.585 -0.221,0.247 -0.445,0.49 -0.67,0.733 -0.008,0.009 -0.087,0.095 -0.095,0.103 l -0.476,0.513 c -0.271,0.286 -0.547,0.569 -0.839,0.868 l -0.471,0.485 c -0.308,0.31 -0.621,0.614 -0.94,0.923 l -0.405,0.395 c -0.445,0.427 -0.895,0.846 -1.352,1.262 -0.015,0.013 -0.028,0.025 -0.042,0.039 -0.429,0.389 -0.864,0.776 -1.304,1.156 -0.044,0.037 -0.088,0.073 -0.131,0.112 -3.308,2.855 -6.903,5.439 -10.685,7.678 -0.057,0.033 -0.117,0.071 -0.18,0.111 l -0.148,0.084 c -0.509,0.297 -1.022,0.588 -1.538,0.876 l 10e-4,0 -0.382,0.212 c -0.631,0.346 -1.269,0.681 -1.889,0.997 l -0.326,0.16 c -0.032,0.015 -0.129,0.064 -0.161,0.079 -0.502,0.252 -1.009,0.499 -1.541,0.75 l -0.543,0.255 c -0.545,0.249 -1.093,0.494 -1.684,0.748 l -0.363,0.157 c -0.658,0.281 -1.323,0.55 -2.014,0.82 l -0.485,0.185 c -0.211,0.081 -0.424,0.16 -0.64,0.241 -0.387,-1.072 -0.811,-2.125 -1.251,-3.167 -0.023,-0.054 -0.046,-0.107 -0.069,-0.16 -0.393,-0.925 -0.807,-1.839 -1.241,-2.741 -0.015,-0.03 -0.029,-0.061 -0.043,-0.092 -1.117,-2.31 -2.362,-4.54 -3.731,-6.684 0.005,-0.002 0.012,-0.003 0.017,-0.005 0.678,-0.236 1.349,-0.485 2.012,-0.742 0.191,-0.073 0.378,-0.148 0.477,-0.188 0.606,-0.24 1.208,-0.488 1.747,-0.724 l 0.254,-0.111 c 0.652,-0.285 1.296,-0.587 1.962,-0.908 l 0.468,-0.23 c 0.562,-0.279 1.119,-0.563 1.717,-0.881 0.037,-0.019 0.165,-0.086 0.202,-0.107 0.63,-0.339 1.254,-0.696 1.789,-1.011 0.186,-0.108 0.367,-0.213 0.547,-0.324 0.521,-0.312 1.035,-0.632 1.504,-0.933 l 0.195,-0.123 c 0.036,-0.023 0.072,-0.045 0.109,-0.069 0.582,-0.378 1.156,-0.768 1.723,-1.164 0.114,-0.079 0.237,-0.166 0.415,-0.294 0.504,-0.358 1,-0.724 1.569,-1.153 0.011,-0.009 0.108,-0.08 0.117,-0.088 0.03,-0.023 0.06,-0.045 0.09,-0.068 0.549,-0.423 1.091,-0.858 1.698,-1.359 l 0.309,-0.261 c 0.463,-0.388 0.921,-0.785 1.32,-1.142 l 0.235,-0.207 c 0.032,-0.028 0.065,-0.057 0.097,-0.086 0.518,-0.467 1.023,-0.943 1.564,-1.467 l 0.311,-0.307 c 0.43,-0.425 0.857,-0.855 1.276,-1.293 l 0.267,-0.277 c 0.475,-0.505 0.942,-1.017 1.425,-1.565 l 0.282,-0.327 c 0.198,-0.224 0.393,-0.448 0.584,-0.677 0.073,-0.088 0.149,-0.182 0.222,-0.28 3.795,-4.566 6.876,-9.629 9.158,-15.055 0.042,-0.092 0.083,-0.184 0.122,-0.278 0.246,-0.588 0.477,-1.181 0.701,-1.778 0.056,-0.143 0.11,-0.291 0.165,-0.447 0.207,-0.558 0.403,-1.117 0.599,-1.701 l 0.181,-0.549 c 0.223,-0.688 0.438,-1.38 0.641,-2.09 0.68,-2.395 1.213,-4.847 1.583,-7.279 0.085,-0.556 0.16,-1.114 0.227,-1.644 0.057,-0.452 0.11,-0.907 0.156,-1.366 0.205,-2.026 0.309,-4.084 0.309,-6.118 0,-0.69 -0.016,-1.376 -0.039,-2.059 l -0.003,-0.111 -0.016,-0.392 c -0.028,-0.677 -0.067,-1.356 -0.118,-2.059 -0.052,-0.666 -0.116,-1.326 -0.19,-2.005 l -0.058,-0.487 c -0.154,-1.307 -0.358,-2.645 -0.599,-3.938 -0.036,-0.197 -0.073,-0.393 -0.113,-0.589 -0.243,-1.237 -0.537,-2.517 -0.878,-3.804 -0.012,-0.043 -0.023,-0.087 -0.036,-0.131 l -0.097,-0.355 c -0.342,-1.245 -0.736,-2.507 -1.182,-3.802 l -0.11,-0.308 c -0.015,-0.043 -0.029,-0.085 -0.044,-0.128 -0.444,-1.234 -0.925,-2.452 -1.436,-3.634 l -0.188,-0.431 c -0.515,-1.162 -1.075,-2.325 -1.666,-3.46 -0.075,-0.148 -0.154,-0.294 -0.241,-0.456 -0.606,-1.142 -1.258,-2.275 -1.978,-3.437 l -0.204,-0.327 c -0.722,-1.144 -1.486,-2.27 -2.268,-3.345 -2.375,-3.263 -5.09,-6.3 -8.071,-9.023 -0.006,-0.006 -0.014,-0.013 -0.02,-0.019 -0.04,-0.037 -0.081,-0.073 -0.122,-0.111 l -1.249,-1.1 c -0.024,-0.022 -0.061,-0.053 -0.086,-0.073 -0.023,-0.02 -0.113,-0.098 -0.137,-0.117 l -3.237,-2.566 c -0.034,-0.025 -0.069,-0.052 -0.104,-0.076 l -0.496,-0.361 c -0.195,-0.14 -0.389,-0.278 -0.586,-0.414 -0.197,-0.141 -0.392,-0.277 -0.577,-0.402 l -1.122,-0.748 c -0.224,-0.148 -0.453,-0.295 -0.652,-0.42 l -1.147,-0.711 c -0.04,-0.024 -0.08,-0.047 -0.121,-0.071 l -1.11,-0.649 c -0.215,-0.123 -0.433,-0.243 -0.633,-0.352 l -2.488,-1.304 c -0.025,-0.012 -0.05,-0.024 -0.073,-0.036 l -0.493,-0.246 c -0.049,-0.024 -0.099,-0.048 -0.15,-0.071 l -0.291,-0.135 c -0.033,-0.016 -0.097,-0.046 -0.131,-0.061 l -1.478,-0.668 c -0.029,-0.013 -0.121,-0.054 -0.15,-0.066 l -0.635,-0.271 c -0.361,-0.152 -0.722,-0.298 -1.12,-0.458 l -3.183,-1.15 c -0.026,-0.009 -0.141,-0.046 -0.167,-0.055 l -0.608,-0.2 c -0.057,-0.018 -0.113,-0.036 -0.171,-0.053 l -0.528,-0.159 c -0.253,-0.076 -0.51,-0.154 -0.73,-0.215 l -1.356,-0.374 c -0.255,-0.068 -0.509,-0.133 -0.694,-0.177 l -0.708,-0.174 c -0.039,-0.01 -0.079,-0.019 -0.117,-0.027 l -2.981,-0.618 c -0.079,-0.016 -0.173,-0.033 -0.252,-0.046 l -0.95,-0.16 c -0.253,-0.041 -0.505,-0.08 -0.689,-0.107 -0.281,-0.042 -0.565,-0.082 -0.85,-0.118 l -0.195,-0.025 c -0.154,-0.023 -0.308,-0.042 -0.464,-0.06 -0.262,-0.032 -0.519,-0.063 -0.753,-0.087 l -0.134,-0.015 c -0.191,-0.023 -0.381,-0.044 -0.626,-0.068 l -0.296,-0.025 c -0.048,-0.005 -0.097,-0.01 -0.145,-0.013 l -0.144,-0.014 c -0.017,-0.001 -0.14,-0.013 -0.157,-0.014 l -0.639,-0.052 c -0.311,-0.023 -0.622,-0.043 -0.877,-0.057 l -1.59,-0.074 c -0.037,-0.001 -0.166,-0.005 -0.202,-0.006 l -0.313,-0.01 c -0.481,-0.013 -0.965,-0.019 -1.552,-0.022 -0.484,0.002 -0.965,0.009 -1.423,0.02 l -2.075,0.088 c -0.311,0.017 -0.627,0.037 -0.928,0.06 l -0.945,0.079 c -0.051,0.003 -0.102,0.009 -0.153,0.013 l -0.349,0.03 c -0.184,0.018 -0.368,0.039 -0.552,0.06 l -0.118,0.014 c -0.263,0.029 -0.526,0.058 -0.787,0.09 -0.129,0.016 -0.258,0.031 -0.386,0.049 -0.109,0.014 -0.215,0.027 -0.322,0.043 -0.263,0.033 -0.523,0.07 -0.721,0.1 -0.253,0.037 -0.503,0.074 -0.744,0.114 l -0.982,0.167 c -0.086,0.014 -0.137,0.023 -0.222,0.039 l -2.987,0.619 c -0.042,0.011 -0.084,0.02 -0.127,0.03 l -0.642,0.157 c -0.255,0.062 -0.514,0.127 -0.765,0.195 l -1.315,0.362 c -0.256,0.072 -0.513,0.15 -0.78,0.23 l -0.502,0.152 c -0.07,0.022 -0.14,0.042 -0.209,0.066 l -0.583,0.192 c -0.018,0.005 -0.104,0.033 -0.122,0.04 l -0.478,0.157 c -0.038,0.013 -0.075,0.025 -0.113,0.038 l -2.026,0.737 c -0.205,0.076 -0.408,0.153 -0.648,0.247 -0.366,0.146 -0.731,0.295 -1.1,0.449 l -0.603,0.258 c -0.033,0.014 -0.067,0.028 -0.1,0.043 -0.004,0.002 -0.101,0.045 -0.106,0.046 l -0.154,0.068 c -0.01,0.004 -0.093,0.04 -0.102,0.044 l -1.571,0.718 c -0.061,0.028 -0.122,0.058 -0.183,0.087 l -0.456,0.227 c -0.037,0.018 -0.073,0.036 -0.11,0.054 l -2.458,1.287 c -0.221,0.121 -0.443,0.243 -0.628,0.349 l -1.128,0.657 c -0.04,0.024 -0.08,0.047 -0.12,0.071 l -1.139,0.704 c -0.22,0.138 -0.44,0.281 -0.657,0.422 l -1.105,0.739 c -0.206,0.139 -0.408,0.279 -0.61,0.423 -0.192,0.132 -0.384,0.269 -0.609,0.429 l -0.461,0.336 c -0.056,0.04 -0.113,0.082 -0.167,0.124 l -0.439,0.321 c -0.026,0.022 -0.123,0.095 -0.151,0.114 l -0.453,0.349 c -0.193,0.149 -0.382,0.295 -0.531,0.415 -0.192,0.152 -0.381,0.304 -0.572,0.459 l -1.205,1.006 c -0.04,0.032 -0.123,0.104 -0.162,0.138 l -1.172,1.035 c -0.025,0.023 -0.051,0.045 -0.075,0.068 -0.019,0.018 -0.038,0.034 -0.058,0.053 -2.979,2.723 -5.693,5.757 -8.064,9.016 -0.779,1.067 -1.542,2.193 -2.318,3.424 l -0.202,0.324 c -0.682,1.102 -1.332,2.235 -1.924,3.347 l -0.228,0.432 c -0.603,1.153 -1.172,2.335 -1.684,3.495 l -0.193,0.443 c -0.51,1.176 -0.993,2.401 -1.438,3.642 l -0.165,0.468 c -0.422,1.218 -0.814,2.477 -1.173,3.771 l -0.093,0.342 c -0.011,0.039 -0.023,0.078 -0.031,0.116 -0.333,1.248 -0.629,2.533 -0.882,3.819 -0.039,0.19 -0.073,0.377 -0.102,0.535 -0.244,1.299 -0.45,2.64 -0.619,4.068 l -0.047,0.416 c -0.072,0.664 -0.137,1.33 -0.191,2.016 -0.052,0.673 -0.088,1.352 -0.121,2.091 l -0.017,0.472 c -0.023,0.677 -0.038,1.359 -0.038,2.043 0,2.041 0.103,4.099 0.31,6.144 0.046,0.439 0.097,0.878 0.151,1.31 0.069,0.561 0.145,1.119 0.229,1.664 0.373,2.447 0.907,4.901 1.589,7.3 0.111,0.392 0.235,0.774 0.354,1.16 -0.164,-0.108 -0.333,-0.208 -0.498,-0.313 -0.345,-0.222 -0.69,-0.442 -1.039,-0.655 -0.363,-0.222 -0.728,-0.44 -1.096,-0.654 -0.392,-0.227 -0.788,-0.446 -1.186,-0.662 -0.498,-0.271 -0.999,-0.536 -1.506,-0.793 -0.472,-0.239 -0.945,-0.474 -1.424,-0.699 -0.341,-0.159 -0.684,-0.313 -1.029,-0.466 -0.457,-0.204 -0.918,-0.398 -1.381,-0.589 -0.305,-0.125 -0.607,-0.254 -0.914,-0.374 -0.718,-0.28 -1.443,-0.544 -2.173,-0.794 -0.283,-0.096 -0.569,-0.184 -0.853,-0.276 -0.535,-0.172 -1.073,-0.337 -1.613,-0.493 -0.3,-0.087 -0.6,-0.173 -0.901,-0.255 -0.114,-0.03 -0.227,-0.067 -0.341,-0.096 l -0.073,-0.521 c -0.049,-0.373 -0.095,-0.745 -0.138,-1.112 l -0.099,-0.864 c -0.039,-0.361 -0.073,-0.725 -0.112,-1.166 -0.026,-0.268 -0.051,-0.533 -0.071,-0.796 -0.032,-0.397 -0.059,-0.799 -0.083,-1.177 l -0.051,-0.801 c -0.021,-0.36 -0.032,-0.719 -0.046,-1.079 l -0.036,-0.915 c -0.017,-0.673 -0.027,-1.347 -0.027,-2.025 0.003,-6.907 0.948,-13.738 2.814,-20.307 z"
           id="path31"
           inkscape:connector-curvature="0"
           style="fill:#ffffff" /></g></g></g><g
     id="g33"
     transform="translate(0,-175.00376)" /><g
     id="g35"
     transform="translate(0,-175.00376)" /><g
     id="g37"
     transform="translate(0,-175.00376)" /><g
     id="g39"
     transform="translate(0,-175.00376)" /><g
     id="g41"
     transform="translate(0,-175.00376)" /><g
     id="g43"
     transform="translate(0,-175.00376)" /><g
     id="g45"
     transform="translate(0,-175.00376)" /><g
     id="g47"
     transform="translate(0,-175.00376)" /><g
     id="g49"
     transform="translate(0,-175.00376)" /><g
     id="g51"
     transform="translate(0,-175.00376)" /><g
     id="g53"
     transform="translate(0,-175.00376)" /><g
     id="g55"
     transform="translate(0,-175.00376)" /><g
     id="g57"
     transform="translate(0,-175.00376)" /><g
     id="g59"
     transform="translate(0,-175.00376)" /><g
     id="g61"
     transform="translate(0,-175.00376)" /></svg>