<?xml version="1.0" encoding="UTF-8" standalone="no"?>
<!-- Generator: Adobe Illustrator 19.0.0, SVG Export Plug-In . SVG Version: 6.00 Build 0)  -->

<svg
   xmlns:dc="http://purl.org/dc/elements/1.1/"
   xmlns:cc="http://creativecommons.org/ns#"
   xmlns:rdf="http://www.w3.org/1999/02/22-rdf-syntax-ns#"
   xmlns:svg="http://www.w3.org/2000/svg"
   xmlns="http://www.w3.org/2000/svg"
   xmlns:sodipodi="http://sodipodi.sourceforge.net/DTD/sodipodi-0.dtd"
   xmlns:inkscape="http://www.inkscape.org/namespaces/inkscape"
   version="1.1"
   id="Layer_1"
   x="0px"
   y="0px"
   viewBox="0 0 520 345"
   xml:space="preserve"
   width="520"
   height="345"
   inkscape:version="0.91 r13725"
   sodipodi:docname="clouds.svg"><metadata
     id="metadata43"><rdf:RDF><cc:Work
         rdf:about=""><dc:format>image/svg+xml</dc:format><dc:type
           rdf:resource="http://purl.org/dc/dcmitype/StillImage" /><dc:title /></cc:Work></rdf:RDF></metadata><defs
     id="defs41" /><sodipodi:namedview
     pagecolor="#e1e1e1"
     bordercolor="#666666"
     borderopacity="1"
     objecttolerance="10"
     gridtolerance="10"
     guidetolerance="10"
     inkscape:pageopacity="0"
     inkscape:pageshadow="2"
     inkscape:window-width="1366"
     inkscape:window-height="705"
     id="namedview39"
     showgrid="false"
     inkscape:zoom="0.99530315"
     inkscape:cx="371.6013"
     inkscape:cy="144.68201"
     inkscape:window-x="0"
     inkscape:window-y="33"
     inkscape:window-maximized="1"
     inkscape:current-layer="Layer_1" /><g
     id="g9"
     transform="translate(0,-167)" /><g
     id="g11"
     transform="translate(0,-167)" /><g
     id="g13"
     transform="translate(0,-167)" /><g
     id="g15"
     transform="translate(0,-167)" /><g
     id="g17"
     transform="translate(0,-167)" /><g
     id="g19"
     transform="translate(0,-167)" /><g
     id="g21"
     transform="translate(0,-167)" /><g
     id="g23"
     transform="translate(0,-167)" /><g
     id="g25"
     transform="translate(0,-167)" /><g
     id="g27"
     transform="translate(0,-167)" /><g
     id="g29"
     transform="translate(0,-167)" /><g
     id="g31"
     transform="translate(0,-167)" /><g
     id="g33"
     transform="translate(0,-167)" /><g
     id="g35"
     transform="translate(0,-167)" /><g
     id="g37"
     transform="translate(0,-167)" /><g
     id="g4395"
     transform="matrix(2.5512685,0,0,2.5512685,-22.81137,-1721.0144)"><path
       id="path4373"
       d="m 146.75,675.58203 c -10.61195,0.50624 -20.64085,6.27557 -24.57617,15.77149 -13.81166,-5.30629 -25.974345,-4.91383 -35.521486,-0.62696 -10.227012,4.59215 -17.338883,13.41342 -20.742188,23.41016 -1.83609,5.39325 -2.510847,11.14345 -2.115234,16.83203 2.057753,0.49639 4.143006,1.07592 6.287109,1.8418 -0.752345,-5.58835 -0.319953,-11.36569 1.509766,-16.74024 2.93047,-8.60785 8.962243,-16.02956 17.517578,-19.87109 8.555335,-3.84153 19.773855,-4.25506 33.615235,1.79492 l 3.26953,1.42969 0.8457,-3.4668 c 2.02382,-8.29435 10.78449,-13.91054 20.23243,-14.37695 1.3497,-0.0666 2.71409,-0.0277 4.07421,0.12304 10.88102,1.20622 21.26937,8.90062 22.14454,28.33985 l 0.10937,2.40234 2.36914,0.41797 c 7.65328,1.34464 12.73084,4.83817 16.01367,9.36914 3.28284,4.53097 4.73841,10.21486 4.53711,15.89258 -0.40128,11.31837 -7.24246,21.92482 -17.83984,23.23828 -6.57923,0.0582 -19.61936,-0.10945 -32.16602,-0.27148 0.90344,1.30205 1.72806,2.64435 2.39453,4.05078 0.30299,0.63937 0.48076,1.32036 0.73633,1.97656 11.18455,0.13555 23.30428,0.30189 29.31446,0.24609 l 0.16211,-0.002 0.1621,-0.0176 c 14.20085,-1.6744 22.74748,-15.32963 23.23243,-29.00781 0.24247,-6.83909 -1.49308,-13.85472 -5.67383,-19.625 -3.81423,-5.2644 -9.79191,-9.28214 -17.62305,-11.16601 -1.77339,-20.08832 -14.24197,-30.36877 -27.21289,-31.80665 -1.68289,-0.18655 -3.37517,-0.23841 -5.05664,-0.1582 z"
       style="color:#000000;font-style:normal;font-variant:normal;font-weight:normal;font-stretch:normal;font-size:medium;line-height:normal;font-family:sans-serif;text-indent:0;text-align:start;text-decoration:none;text-decoration-line:none;text-decoration-style:solid;text-decoration-color:#000000;letter-spacing:normal;word-spacing:normal;text-transform:none;direction:ltr;block-progression:tb;writing-mode:lr-tb;baseline-shift:baseline;text-anchor:start;white-space:normal;clip-rule:nonzero;display:inline;overflow:visible;visibility:visible;opacity:1;isolation:auto;mix-blend-mode:normal;color-interpolation:sRGB;color-interpolation-filters:linearRGB;solid-color:#000000;solid-opacity:1;fill:#ffffff;fill-opacity:1;fill-rule:evenodd;stroke:none;stroke-width:6;stroke-linecap:butt;stroke-linejoin:miter;stroke-miterlimit:4;stroke-dasharray:none;stroke-dashoffset:0;stroke-opacity:1;color-rendering:auto;image-rendering:auto;shape-rendering:auto;text-rendering:auto;enable-background:accumulate"
       inkscape:connector-curvature="0" /><path
       inkscape:connector-curvature="0"
       id="path4371"
       d="m 96.130859,717.47266 c -10.611321,0.5062 -20.638399,6.27462 -24.574218,15.76953 -13.811534,-5.30616 -25.974415,-4.91184 -35.521485,-0.625 -10.227011,4.59214 -17.338882,13.41342 -20.742187,23.41015 -3.403305,9.99674 -3.168681,21.25544 1.429687,30.97852 4.598369,9.72308 13.676841,17.78815 27.246094,21.11719 l 0.326172,0.0801 0.335937,0.006 c 18.231815,0.31508 66.591611,1.20396 83.511721,1.04688 l 0.16211,-0.002 0.16211,-0.0195 c 14.20084,-1.67441 22.74748,-15.32769 23.23242,-29.00586 0.24247,-6.83909 -1.49308,-13.85472 -5.67383,-19.625 -3.81423,-5.26441 -9.7919,-9.28214 -17.62305,-11.16602 -1.77339,-20.08832 -14.24197,-30.37072 -27.21289,-31.80859 -1.682883,-0.18656 -3.377124,-0.23647 -5.058591,-0.15625 z m 0.324219,5.99804 c 1.349705,-0.0666 2.714092,-0.0277 4.074222,0.12305 10.88102,1.2062 21.26936,8.90062 22.14453,28.33984 l 0.10937,2.40235 2.36914,0.41797 c 7.65328,1.34463 12.73084,4.83817 16.01368,9.36914 3.28283,4.53097 4.7384,10.21485 4.5371,15.89257 -0.40127,11.31838 -7.24246,21.92482 -17.83984,23.23829 -16.64164,0.14726 -64.277983,-0.71849 -82.687499,-1.03711 -11.882257,-2.9818 -19.194792,-9.66943 -23.029297,-17.77735 -3.860805,-8.16353 -4.104297,-17.87066 -1.173828,-26.47851 2.93047,-8.60785 8.964197,-16.02957 17.519532,-19.8711 8.555334,-3.84152 19.773858,-4.25505 33.615234,1.79493 l 3.269531,1.42968 0.845703,-3.46679 c 2.023817,-8.29436 10.78449,-13.91055 20.232422,-14.37696 z"
       style="color:#000000;font-style:normal;font-variant:normal;font-weight:normal;font-stretch:normal;font-size:medium;line-height:normal;font-family:sans-serif;text-indent:0;text-align:start;text-decoration:none;text-decoration-line:none;text-decoration-style:solid;text-decoration-color:#000000;letter-spacing:normal;word-spacing:normal;text-transform:none;direction:ltr;block-progression:tb;writing-mode:lr-tb;baseline-shift:baseline;text-anchor:start;white-space:normal;clip-rule:nonzero;display:inline;overflow:visible;visibility:visible;opacity:1;isolation:auto;mix-blend-mode:normal;color-interpolation:sRGB;color-interpolation-filters:linearRGB;solid-color:#000000;solid-opacity:1;fill:#ffffff;fill-opacity:1;fill-rule:evenodd;stroke:none;stroke-width:6;stroke-linecap:butt;stroke-linejoin:miter;stroke-miterlimit:4;stroke-dasharray:none;stroke-dashoffset:0;stroke-opacity:1;color-rendering:auto;image-rendering:auto;shape-rendering:auto;text-rendering:auto;enable-background:accumulate" /></g></svg>