<?xml version="1.0" encoding="UTF-8" standalone="no"?>
<!-- Generator: Adobe Illustrator 19.0.0, SVG Export Plug-In . SVG Version: 6.00 Build 0)  -->

<svg
   xmlns:dc="http://purl.org/dc/elements/1.1/"
   xmlns:cc="http://creativecommons.org/ns#"
   xmlns:rdf="http://www.w3.org/1999/02/22-rdf-syntax-ns#"
   xmlns:svg="http://www.w3.org/2000/svg"
   xmlns="http://www.w3.org/2000/svg"
   xmlns:sodipodi="http://sodipodi.sourceforge.net/DTD/sodipodi-0.dtd"
   xmlns:inkscape="http://www.inkscape.org/namespaces/inkscape"
   version="1.1"
   id="Capa_1"
   x="0px"
   y="0px"
   viewBox="0 0 10.546875 10.546875"
   xml:space="preserve"
   width="90"
   height="90"
   inkscape:version="0.91 r13725"
   sodipodi:docname="navigation.svg"><metadata
     id="metadata43"><rdf:RDF><cc:Work
         rdf:about=""><dc:format>image/svg+xml</dc:format><dc:type
           rdf:resource="http://purl.org/dc/dcmitype/StillImage" /><dc:title /></cc:Work></rdf:RDF></metadata><defs
     id="defs41" /><sodipodi:namedview
     pagecolor="#ffffff"
     bordercolor="#666666"
     borderopacity="1"
     objecttolerance="10"
     gridtolerance="10"
     guidetolerance="10"
     inkscape:pageopacity="0"
     inkscape:pageshadow="2"
     inkscape:window-width="1366"
     inkscape:window-height="705"
     id="namedview39"
     showgrid="false"
     inkscape:zoom="4.2321918"
     inkscape:cx="48.988063"
     inkscape:cy="36.31751"
     inkscape:window-x="0"
     inkscape:window-y="33"
     inkscape:window-maximized="1"
     inkscape:current-layer="Capa_1" /><g
     id="g3"
     transform="matrix(0.09765624,0,0,0.09765624,2.34375,2.34375)"
     style="fill:#ffda44;fill-opacity:1;stroke:#ffda44;stroke-opacity:1"><path
       d="M 44.394,13.091 8.633,29.503 c -0.399,0.184 -0.632,0.605 -0.574,1.041 0.058,0.436 0.393,0.782 0.826,0.854 l 15.833,2.653 1.809,14.95 c 0.054,0.438 0.389,0.791 0.824,0.865 0.057,0.01 0.113,0.015 0.169,0.015 0.375,0 0.726,-0.211 0.896,-0.556 L 45.707,14.443 c 0.188,-0.38 0.117,-0.837 -0.178,-1.141 -0.295,-0.304 -0.753,-0.388 -1.135,-0.211 z M 28.11,45.438 26.614,33.069 C 26.56,32.629 26.223,32.276 25.786,32.203 L 12.424,29.964 42.66,16.087 28.11,45.438 Z"
       id="path5"
       inkscape:connector-curvature="0"
       style="fill:#ffda44;fill-opacity:1;stroke:#ffda44;stroke-opacity:1" /><path
       d="M 30,0 C 13.458,0 0,13.458 0,30 0,46.542 13.458,60 30,60 46.542,60 60,46.542 60,30 60,13.458 46.542,0 30,0 Z m 0,58 C 14.561,58 2,45.439 2,30 2,14.561 14.561,2 30,2 45.439,2 58,14.561 58,30 58,45.439 45.439,58 30,58 Z"
       id="path7"
       inkscape:connector-curvature="0"
       style="fill:#ffda44;fill-opacity:1;stroke:#ffda44;stroke-opacity:1" /></g><g
     id="g9"
     transform="translate(0,-49.453122)" /><g
     id="g11"
     transform="translate(0,-49.453122)" /><g
     id="g13"
     transform="translate(0,-49.453122)" /><g
     id="g15"
     transform="translate(0,-49.453122)" /><g
     id="g17"
     transform="translate(0,-49.453122)" /><g
     id="g19"
     transform="translate(0,-49.453122)" /><g
     id="g21"
     transform="translate(0,-49.453122)" /><g
     id="g23"
     transform="translate(0,-49.453122)" /><g
     id="g25"
     transform="translate(0,-49.453122)" /><g
     id="g27"
     transform="translate(0,-49.453122)" /><g
     id="g29"
     transform="translate(0,-49.453122)" /><g
     id="g31"
     transform="translate(0,-49.453122)" /><g
     id="g33"
     transform="translate(0,-49.453122)" /><g
     id="g35"
     transform="translate(0,-49.453122)" /><g
     id="g37"
     transform="translate(0,-49.453122)" /></svg>