<?xml version="1.0" encoding="UTF-8" standalone="no"?>
<!-- Generator: Adobe Illustrator 19.0.0, SVG Export Plug-In . SVG Version: 6.00 Build 0)  -->

<svg
   xmlns:dc="http://purl.org/dc/elements/1.1/"
   xmlns:cc="http://creativecommons.org/ns#"
   xmlns:rdf="http://www.w3.org/1999/02/22-rdf-syntax-ns#"
   xmlns:svg="http://www.w3.org/2000/svg"
   xmlns="http://www.w3.org/2000/svg"
   xmlns:sodipodi="http://sodipodi.sourceforge.net/DTD/sodipodi-0.dtd"
   xmlns:inkscape="http://www.inkscape.org/namespaces/inkscape"
   version="1.1"
   id="Layer_1"
   x="0px"
   y="0px"
   viewBox="0 0 511.997 336.99803"
   xml:space="preserve"
   width="512"
   height="337"
   inkscape:version="0.91 r13725"
   sodipodi:docname="rain.svg"><metadata
     id="metadata87"><rdf:RDF><cc:Work
         rdf:about=""><dc:format>image/svg+xml</dc:format><dc:type
           rdf:resource="http://purl.org/dc/dcmitype/StillImage" /><dc:title></dc:title></cc:Work></rdf:RDF></metadata><defs
     id="defs85" /><sodipodi:namedview
     pagecolor="#e4e4e4"
     bordercolor="#666666"
     borderopacity="1"
     objecttolerance="10"
     gridtolerance="10"
     guidetolerance="10"
     inkscape:pageopacity="0"
     inkscape:pageshadow="2"
     inkscape:window-width="1366"
     inkscape:window-height="705"
     id="namedview83"
     showgrid="false"
     inkscape:snap-global="false"
     inkscape:zoom="0.95788574"
     inkscape:cx="358.76411"
     inkscape:cy="199.90489"
     inkscape:window-x="0"
     inkscape:window-y="33"
     inkscape:window-maximized="1"
     inkscape:current-layer="Layer_1" /><g
     id="g5"
     transform="matrix(0.8202252,0,0,0.8202252,28.186913,-36.064485)"><g
       id="g7"><path
         style="fill:#ffffff"
         inkscape:connector-curvature="0"
         id="path9"
         d="m 476.267,273.68719 c -3.798,-2.855 -9.193,-2.089 -12.048,1.712 l -15.078,20.07 c -2.854,3.799 -2.088,9.193 1.712,12.048 1.548,1.164 3.362,1.725 5.162,1.725 2.614,0 5.195,-1.186 6.886,-3.437 l 15.078,-20.07 c 2.854,-3.799 2.088,-9.193 -1.712,-12.048 z" /><path
         style="fill:#ffffff"
         inkscape:connector-curvature="0"
         id="path11"
         d="m 441.71,319.68319 c -3.798,-2.855 -9.193,-2.088 -12.048,1.712 l -15.078,20.07 c -2.854,3.799 -2.088,9.193 1.712,12.048 1.548,1.164 3.362,1.725 5.162,1.725 2.614,0 5.195,-1.186 6.886,-3.437 l 15.078,-20.07 c 2.854,-3.799 2.089,-9.193 -1.712,-12.048 z" /><path
         style="fill:#ffffff"
         inkscape:connector-curvature="0"
         id="path13"
         d="m 407.153,365.67919 c -3.797,-2.855 -9.193,-2.088 -12.048,1.712 l -15.078,20.071 c -2.854,3.799 -2.088,9.193 1.712,12.048 1.548,1.164 3.362,1.725 5.162,1.725 2.614,0 5.195,-1.186 6.886,-3.437 l 15.078,-20.071 c 2.854,-3.799 2.09,-9.194 -1.712,-12.048 z" /><path
         style="fill:#ffffff"
         inkscape:connector-curvature="0"
         id="path17"
         d="m 410.132,273.68819 c -3.799,-2.855 -9.196,-2.089 -12.048,1.71 l -15.08,20.07 c -2.855,3.799 -2.089,9.194 1.71,12.048 1.549,1.164 3.363,1.725 5.163,1.725 2.614,0 5.195,-1.186 6.885,-3.436 l 15.08,-20.07 c 2.855,-3.798 2.089,-9.193 -1.71,-12.047 z" /><path
         style="fill:#ffffff"
         inkscape:connector-curvature="0"
         id="path19"
         d="m 375.575,319.68419 c -3.799,-2.854 -9.195,-2.089 -12.048,1.71 l -15.08,20.07 c -2.855,3.799 -2.089,9.194 1.71,12.048 1.549,1.164 3.364,1.725 5.163,1.725 2.614,0 5.195,-1.186 6.885,-3.436 l 15.08,-20.07 c 2.855,-3.798 2.089,-9.193 -1.71,-12.047 z" /><path
         style="fill:#ffffff"
         inkscape:connector-curvature="0"
         id="path21"
         d="m 341.018,365.68019 c -3.8,-2.856 -9.195,-2.089 -12.048,1.71 l -15.08,20.071 c -2.855,3.8 -2.089,9.194 1.71,12.048 1.549,1.164 3.364,1.725 5.163,1.725 2.614,0 5.195,-1.186 6.885,-3.436 l 15.08,-20.071 c 2.855,-3.799 2.09,-9.194 -1.71,-12.047 z" /><path
         style="fill:#ffffff"
         inkscape:connector-curvature="0"
         id="path23"
         d="m 306.459,411.67719 c -3.798,-2.855 -9.193,-2.089 -12.048,1.712 l -15.078,20.071 c -2.854,3.799 -2.088,9.193 1.712,12.048 1.548,1.164 3.362,1.725 5.162,1.725 2.614,0 5.195,-1.186 6.886,-3.437 l 15.078,-20.071 c 2.854,-3.799 2.088,-9.194 -1.712,-12.048 z" /><path
         style="fill:#ffffff"
         inkscape:connector-curvature="0"
         id="path25"
         d="m 323.741,309.24219 c 2.614,0 5.195,-1.186 6.886,-3.437 l 15.078,-20.07 c 2.854,-3.799 2.088,-9.193 -1.712,-12.048 -3.798,-2.855 -9.193,-2.089 -12.048,1.712 l -15.078,20.07 c -2.854,3.799 -2.088,9.193 1.712,12.048 1.548,1.164 3.362,1.725 5.162,1.725 z" /><path
         style="fill:#ffffff"
         inkscape:connector-curvature="0"
         id="path27"
         d="m 309.436,319.68319 c -3.798,-2.855 -9.193,-2.088 -12.048,1.712 l -15.078,20.07 c -2.854,3.799 -2.088,9.193 1.712,12.048 1.548,1.164 3.362,1.725 5.162,1.725 2.614,0 5.195,-1.186 6.886,-3.437 l 15.078,-20.07 c 2.854,-3.799 2.088,-9.193 -1.712,-12.048 z" /><path
         style="fill:#ffffff"
         inkscape:connector-curvature="0"
         id="path29"
         d="m 274.88,365.68019 c -3.8,-2.856 -9.194,-2.089 -12.048,1.71 l -15.08,20.071 c -2.855,3.8 -2.089,9.194 1.71,12.048 1.549,1.164 3.363,1.725 5.163,1.725 2.614,0 5.195,-1.186 6.885,-3.436 l 15.08,-20.071 c 2.855,-3.799 2.09,-9.194 -1.71,-12.047 z" /><path
         style="fill:#ffffff"
         inkscape:connector-curvature="0"
         id="path33"
         d="m 243.297,319.68319 c -3.797,-2.855 -9.193,-2.088 -12.048,1.712 l -15.078,20.07 c -2.854,3.799 -2.088,9.193 1.712,12.048 1.548,1.164 3.362,1.725 5.162,1.725 2.614,0 5.195,-1.186 6.886,-3.437 l 15.078,-20.07 c 2.855,-3.799 2.089,-9.193 -1.712,-12.048 z" /><path
         style="fill:#ffffff"
         inkscape:connector-curvature="0"
         id="path35"
         d="m 208.74,365.67919 c -3.798,-2.855 -9.193,-2.088 -12.048,1.712 l -15.078,20.071 c -2.854,3.799 -2.088,9.193 1.712,12.048 1.548,1.164 3.362,1.725 5.162,1.725 2.614,0 5.195,-1.186 6.886,-3.437 l 15.078,-20.071 c 2.855,-3.799 2.089,-9.194 -1.712,-12.048 z" /><path
         style="fill:#ffffff"
         inkscape:connector-curvature="0"
         id="path37"
         d="m 174.185,411.67819 c -3.8,-2.855 -9.195,-2.09 -12.048,1.71 l -15.08,20.071 c -2.855,3.8 -2.089,9.194 1.71,12.048 1.549,1.164 3.364,1.725 5.163,1.725 2.614,0 5.195,-1.186 6.885,-3.436 l 15.08,-20.071 c 2.856,-3.799 2.09,-9.194 -1.71,-12.047 z" /><path
         style="fill:#ffffff"
         inkscape:connector-curvature="0"
         id="path39"
         d="m 177.162,319.68419 c -3.8,-2.854 -9.194,-2.089 -12.048,1.71 l -15.08,20.07 c -2.855,3.799 -2.089,9.194 1.71,12.048 1.549,1.164 3.363,1.725 5.163,1.725 2.614,0 5.195,-1.186 6.885,-3.436 l 15.08,-20.07 c 2.855,-3.798 2.089,-9.193 -1.71,-12.047 z" /><path
         style="fill:#ffffff"
         inkscape:connector-curvature="0"
         id="path41"
         d="m 142.605,365.68019 c -3.8,-2.856 -9.196,-2.089 -12.048,1.71 l -15.08,20.071 c -2.855,3.8 -2.089,9.194 1.71,12.048 1.549,1.164 3.363,1.725 5.163,1.725 2.614,0 5.195,-1.186 6.885,-3.436 l 15.08,-20.071 c 2.855,-3.799 2.089,-9.194 -1.71,-12.047 z" /><path
         style="fill:#ffffff"
         inkscape:connector-curvature="0"
         id="path45"
         d="m 111.023,319.68319 c -3.797,-2.855 -9.194,-2.088 -12.048,1.712 l -15.078,20.07 c -2.854,3.799 -2.088,9.193 1.712,12.048 1.548,1.164 3.362,1.725 5.162,1.725 2.614,0 5.195,-1.186 6.886,-3.437 l 15.078,-20.07 c 2.854,-3.799 2.088,-9.193 -1.712,-12.048 z" /><path
         style="fill:#ffffff"
         inkscape:connector-curvature="0"
         id="path47"
         d="m 76.467,365.68019 c -3.8,-2.856 -9.196,-2.089 -12.048,1.71 l -15.08,20.071 c -2.855,3.8 -2.089,9.194 1.71,12.048 1.549,1.164 3.364,1.725 5.163,1.725 2.614,0 5.195,-1.186 6.885,-3.436 l 15.08,-20.071 c 2.855,-3.799 2.089,-9.194 -1.71,-12.047 z" /><path
         style="fill:#ffffff"
         inkscape:connector-curvature="0"
         id="path49"
         d="m 41.911,411.67819 c -3.8,-2.855 -9.196,-2.09 -12.048,1.71 l -15.08,20.071 c -2.855,3.8 -2.089,9.194 1.71,12.048 1.549,1.164 3.364,1.725 5.163,1.725 2.614,0 5.195,-1.186 6.885,-3.436 l 15.08,-20.071 c 2.855,-3.799 2.089,-9.194 -1.71,-12.047 z" /><path
         sodipodi:nodetypes="scscsccsccscssccsssccssccscccscccccccccssscssssscscsscsssccccccccccccccccccscccssccccscs"
         style="fill:#ffffff"
         inkscape:connector-curvature="0"
         id="path51"
         d="m 465.893,109.301 c -1.067,0 -2.131,0.037 -3.191,0.11 -4.13,-28.549 -28.763,-50.552 -58.439,-50.552 -24.923,0 -46.543,15.217 -55.148,37.893 -1.204,-0.112 -2.415,-0.169 -3.629,-0.169 -0.919,0 -1.831,0.044 -2.739,0.109 C 336.192,83.1 326.285,71.447 313.781,62.722 298.99,52.4 281.607,46.945 263.512,46.945 c -20.081,0 -39.721,6.945 -55.3,19.557 -13.059,10.571 -22.852,24.746 -28.148,40.545 -2.986,-0.487 -6.013,-0.734 -9.056,-0.734 -16.477,0 -32.034,7.237 -42.663,19.61 -3.8,-0.648 -7.657,-0.972 -11.526,-0.972 -37.671,0 -68.319,30.647 -68.319,68.317 0,9.521 1.929,18.694 5.713,27.324 26.433112,31.41288 60.74905,41.95991 207.413,40.995 l 51.684,0 c 4.752,0 8.605,-3.853 8.605,-8.605 0,-4.752 -3.853,-8.605 -8.605,-8.605 l -61.154,0 c -76.2212,-0.21699 -181.809886,3.92636 -186.292,-47.034 -0.105,-1.347 -0.157,-2.704 -0.157,-4.07 0,-28.18 22.927,-51.107 51.109,-51.107 4.348,0 8.675,0.55 12.863,1.632 3.487,0.902 7.174,-0.468 9.227,-3.43 7.304,-10.544 19.302,-16.838 32.099,-16.838 4.208,0 8.368,0.677 12.367,2.01 2.307,0.77 4.831,0.529 6.949,-0.667 2.119,-1.193 3.632,-3.228 4.169,-5.6 7.331,-32.45 35.713,-55.112 69.02,-55.112 26.641,0 50.384,14.526 62.552,37.636 -0.101,0.058 -0.197,0.127 -0.298,0.187 -0.616,0.364 -1.222,0.743 -1.817,1.14 -0.151,0.1 -0.301,0.197 -0.45,0.299 -0.708,0.485 -1.402,0.992 -2.076,1.524 -0.073,0.057 -0.142,0.118 -0.215,0.176 -0.602,0.482 -1.19,0.985 -1.764,1.504 -0.143,0.129 -0.285,0.257 -0.426,0.388 -0.63,0.586 -1.25,1.188 -1.844,1.818 -2.026,-0.267 -4.072,-0.401 -6.121,-0.401 -25.667,0 -46.548,20.88 -46.548,46.546 0,25.667 20.881,46.548 46.548,46.548 l 99.3,0 c -3.658,24.226 -24.622,42.857 -49.853,42.857 l -15.998,0 c -4.752,0 -8.605,3.853 -8.605,8.605 0,4.752 3.853,8.605 8.605,8.605 l 15.998,0 c 34.733,0 63.422,-26.324 67.194,-60.067 l 38.198,0 c 25.423,0 46.107,-20.683 46.107,-46.108 0.003,-25.431 -20.681,-46.117 -46.104,-46.117 z m 0,75.009 -46.397,0 -108.442,0 c -16.177,0 -29.338,-13.16 -29.338,-29.338 0,-16.176 13.16,-29.336 29.338,-29.336 2.497,0 4.983,0.315 7.391,0.937 1.934,0.498 3.916,0.279 5.658,-0.5 1.403,-0.627 2.651,-1.609 3.567,-2.931 0.326,-0.47 0.674,-0.92 1.034,-1.361 0.092,-0.113 0.186,-0.224 0.28,-0.335 0.324,-0.381 0.658,-0.752 1.007,-1.109 0.051,-0.052 0.098,-0.105 0.148,-0.156 0.4,-0.401 0.818,-0.784 1.247,-1.152 0.096,-0.082 0.194,-0.16 0.29,-0.241 0.367,-0.303 0.742,-0.596 1.128,-0.875 0.088,-0.063 0.174,-0.131 0.264,-0.194 0.457,-0.319 0.925,-0.622 1.406,-0.906 0.102,-0.06 0.206,-0.116 0.31,-0.174 0.402,-0.229 0.812,-0.445 1.229,-0.649 0.12,-0.059 0.24,-0.119 0.361,-0.176 0.507,-0.236 1.022,-0.454 1.547,-0.651 0.076,-0.028 0.154,-0.052 0.23,-0.08 0.482,-0.173 0.97,-0.33 1.465,-0.469 1.89,-0.535 3.862,-0.824 5.872,-0.824 2.335,0 4.646,0.375 6.869,1.115 2.308,0.768 4.829,0.526 6.946,-0.669 2.118,-1.193 3.631,-3.228 4.167,-5.599 4.264,-18.874 21.42,-32.572 40.795,-32.572 23.069,0 41.838,18.769 41.838,41.838 0,0.422 -0.018,0.84 -0.033,1.257 l -0.004,0.137 c -0.104,2.792 1.155,5.462 3.377,7.157 2.22,1.696 5.126,2.209 7.795,1.371 2.791,-0.875 5.704,-1.319 8.658,-1.319 15.933,0 28.897,12.964 28.897,28.9 -0.003,15.941 -12.966,28.904 -28.9,28.904 z" /><path
         d="m 276.47016,273.68719 c -3.798,-2.855 -9.193,-2.089 -12.048,1.712 l -15.078,20.07 c -2.854,3.799 -2.088,9.193 1.712,12.048 1.548,1.164 3.362,1.725 5.162,1.725 2.614,0 5.195,-1.186 6.886,-3.437 l 15.078,-20.07 c 2.854,-3.799 2.088,-9.193 -1.712,-12.048 z"
         id="path3415"
         inkscape:connector-curvature="0"
         style="fill:#ffffff" /><path
         d="m 210.33516,273.68819 c -3.799,-2.855 -9.196,-2.089 -12.048,1.71 l -15.08,20.07 c -2.855,3.799 -2.089,9.194 1.71,12.048 1.549,1.164 3.363,1.725 5.163,1.725 2.614,0 5.195,-1.186 6.885,-3.436 l 15.08,-20.07 c 2.855,-3.798 2.089,-9.193 -1.71,-12.047 z"
         id="path3417"
         inkscape:connector-curvature="0"
         style="fill:#ffffff" /><path
         d="m 123.94416,309.24219 c 2.614,0 5.195,-1.186 6.886,-3.437 l 15.078,-20.07 c 2.854,-3.799 2.088,-9.193 -1.712,-12.048 -3.798,-2.855 -9.193,-2.089 -12.048,1.712 l -15.078,20.07 c -2.854,3.799 -2.088,9.193 1.712,12.048 1.548,1.164 3.362,1.725 5.162,1.725 z"
         id="path3419"
         inkscape:connector-curvature="0"
         style="fill:#ffffff" /></g></g><g
     id="g53"
     transform="translate(0,-174.99898)" /><g
     id="g55"
     transform="translate(0,-174.99898)" /><g
     id="g57"
     transform="translate(0,-174.99898)" /><g
     id="g59"
     transform="translate(0,-174.99898)" /><g
     id="g61"
     transform="translate(0,-174.99898)" /><g
     id="g63"
     transform="translate(0,-174.99898)" /><g
     id="g65"
     transform="translate(0,-174.99898)" /><g
     id="g67"
     transform="translate(0,-174.99898)" /><g
     id="g69"
     transform="translate(0,-174.99898)" /><g
     id="g71"
     transform="translate(0,-174.99898)" /><g
     id="g73"
     transform="translate(0,-174.99898)" /><g
     id="g75"
     transform="translate(0,-174.99898)" /><g
     id="g77"
     transform="translate(0,-174.99898)" /><g
     id="g79"
     transform="translate(0,-174.99898)" /><g
     id="g81"
     transform="translate(0,-174.99898)" /></svg>