<?xml version="1.0" encoding="UTF-8" standalone="no"?>
<!-- Generator: Adobe Illustrator 19.0.0, SVG Export Plug-In . SVG Version: 6.00 Build 0)  -->

<svg
   xmlns:dc="http://purl.org/dc/elements/1.1/"
   xmlns:cc="http://creativecommons.org/ns#"
   xmlns:rdf="http://www.w3.org/1999/02/22-rdf-syntax-ns#"
   xmlns:svg="http://www.w3.org/2000/svg"
   xmlns="http://www.w3.org/2000/svg"
   xmlns:sodipodi="http://sodipodi.sourceforge.net/DTD/sodipodi-0.dtd"
   xmlns:inkscape="http://www.inkscape.org/namespaces/inkscape"
   version="1.1"
   id="Layer_1"
   x="0px"
   y="0px"
   viewBox="0 0 90.001934 90.001935"
   xml:space="preserve"
   width="90"
   height="90"
   inkscape:version="0.91 r13725"
   sodipodi:docname="waves.svg"><metadata
     id="metadata67"><rdf:RDF><cc:Work
         rdf:about=""><dc:format>image/svg+xml</dc:format><dc:type
           rdf:resource="http://purl.org/dc/dcmitype/StillImage" /><dc:title /></cc:Work></rdf:RDF></metadata><defs
     id="defs65" /><sodipodi:namedview
     pagecolor="#ffffff"
     bordercolor="#666666"
     borderopacity="1"
     objecttolerance="10"
     gridtolerance="10"
     guidetolerance="10"
     inkscape:pageopacity="0"
     inkscape:pageshadow="2"
     inkscape:window-width="1366"
     inkscape:window-height="705"
     id="namedview63"
     showgrid="false"
     inkscape:zoom="4.1367287"
     inkscape:cx="91.26089"
     inkscape:cy="53.462059"
     inkscape:window-x="0"
     inkscape:window-y="33"
     inkscape:window-maximized="1"
     inkscape:current-layer="Layer_1" /><g
     id="g5"
     transform="matrix(0.13671769,0,0,0.13671769,10.000484,-11.84823)"
     style="fill:#ffda44;fill-opacity:1"><g
       id="g7"
       style="fill:#ffda44;fill-opacity:1"><path
         style="fill:#ffda44;fill-opacity:1"
         inkscape:connector-curvature="0"
         id="path9"
         d="m 43.962,378.623 c 15.644,0 30.357,-6.099 41.433,-17.174 0.002,-0.002 0.004,-0.004 0.006,-0.008 7.82,-7.817 18.204,-12.121 29.241,-12.121 11.034,0 21.415,4.302 29.234,12.115 0.004,0.004 0.009,0.011 0.014,0.015 11.423,11.422 26.428,17.133 41.435,17.133 15.005,0 30.01,-5.711 41.434,-17.133 0.008,-0.008 0.013,-0.015 0.02,-0.023 7.817,-7.807 18.195,-12.107 29.226,-12.107 11.039,0 21.423,4.305 29.243,12.121 0.002,0.002 0.004,0.004 0.006,0.008 11.074,11.075 25.788,17.174 41.433,17.174 15.644,0 30.358,-6.099 41.435,-17.173 0.008,-0.008 0.013,-0.015 0.02,-0.023 7.817,-7.807 18.195,-12.107 29.226,-12.107 11.039,0 21.423,4.305 29.242,12.121 0.002,0.002 0.004,0.004 0.006,0.008 11.074,11.075 25.788,17.174 41.433,17.174 15.644,0 30.358,-6.099 41.433,-17.174 3.364,-3.364 3.364,-8.819 -0.001,-12.184 -3.363,-3.363 -8.818,-3.364 -12.184,0.001 -7.82,7.82 -18.206,12.127 -29.247,12.127 -11.031,0 -21.41,-4.3 -29.227,-12.107 -0.008,-0.008 -0.013,-0.015 -0.02,-0.023 -11.075,-11.074 -25.79,-17.173 -41.435,-17.173 -15.644,0 -30.357,6.099 -41.433,17.174 -0.002,0.002 -0.004,0.005 -0.006,0.008 -7.82,7.817 -18.204,12.121 -29.243,12.121 -11.031,0 -21.41,-4.3 -29.227,-12.107 -0.008,-0.008 -0.013,-0.015 -0.021,-0.023 -11.075,-11.074 -25.79,-17.173 -41.435,-17.173 -15.644,0 -30.358,6.099 -41.433,17.174 -0.002,0.002 -0.004,0.005 -0.006,0.008 -16.123,16.118 -42.35,16.118 -58.479,0.008 -0.004,-0.004 -0.009,-0.01 -0.013,-0.014 -11.074,-11.075 -25.788,-17.174 -41.432,-17.174 -15.644,0 -30.357,6.099 -41.434,17.173 -0.008,0.008 -0.013,0.015 -0.021,0.023 -7.818,7.807 -18.195,12.107 -29.227,12.107 -11.042,0 -21.429,-4.307 -29.249,-12.128 -3.365,-3.363 -8.819,-3.363 -12.185,0 -3.364,3.365 -3.364,8.819 0,12.185 11.079,11.072 25.793,17.171 41.438,17.171 z" /><path
         style="fill:#ffda44;fill-opacity:1"
         inkscape:connector-curvature="0"
         id="path11"
         d="m 497.295,409.723 c -16.125,16.125 -42.361,16.126 -58.488,0.005 -0.002,-0.002 -0.004,-0.004 -0.005,-0.006 -11.075,-11.076 -25.79,-17.176 -41.435,-17.176 -15.644,0 -30.358,6.1 -41.433,17.176 -0.004,0.004 -0.008,0.01 -0.012,0.014 -16.13,16.111 -42.356,16.109 -58.478,-0.008 -0.002,-0.002 -0.004,-0.004 -0.005,-0.006 -11.075,-11.076 -25.79,-17.176 -41.435,-17.176 -15.644,0 -30.358,6.1 -41.433,17.176 -0.004,0.004 -0.009,0.01 -0.013,0.014 -16.126,16.109 -42.348,16.107 -58.473,0 -0.004,-0.004 -0.008,-0.01 -0.012,-0.014 -11.073,-11.076 -25.788,-17.176 -41.432,-17.176 -15.644,0 -30.357,6.1 -41.434,17.176 -0.002,0.002 -0.004,0.004 -0.005,0.006 -16.127,16.122 -42.364,16.12 -58.492,-0.005 -3.363,-3.363 -8.818,-3.364 -12.184,10e-4 -3.364,3.364 -3.364,8.819 0.001,12.184 11.424,11.422 26.428,17.133 41.434,17.133 15.006,0 30.009,-5.712 41.433,-17.133 0.008,-0.008 0.013,-0.015 0.021,-0.023 7.819,-7.808 18.196,-12.109 29.229,-12.109 11.034,0 21.415,4.302 29.234,12.117 0.004,0.004 0.009,0.01 0.013,0.015 11.423,11.421 26.428,17.132 41.435,17.132 15.005,0 30.009,-5.711 41.433,-17.132 0.005,-0.004 0.009,-0.011 0.014,-0.015 7.818,-7.813 18.199,-12.117 29.235,-12.117 11.031,0 21.411,4.301 29.23,12.109 0.008,0.008 0.013,0.015 0.021,0.023 11.424,11.423 26.425,17.133 41.433,17.133 15.004,0 30.011,-5.713 41.434,-17.133 0.004,-0.004 0.009,-0.01 0.013,-0.015 7.818,-7.814 18.199,-12.117 29.235,-12.117 11.031,0 21.411,4.301 29.23,12.109 0.008,0.008 0.013,0.015 0.02,0.023 11.423,11.422 26.427,17.133 41.433,17.133 15.005,0 30.008,-5.711 41.433,-17.133 3.364,-3.365 3.364,-8.819 0,-12.185 -3.374,-3.363 -8.829,-3.363 -12.195,0 z" /><path
         style="fill:#ffda44;fill-opacity:1"
         inkscape:connector-curvature="0"
         id="path13"
         d="m 497.295,470.18 c -7.82,7.82 -18.206,12.127 -29.247,12.127 -11.031,0 -21.41,-4.3 -29.227,-12.107 -0.008,-0.008 -0.013,-0.015 -0.021,-0.023 -11.075,-11.074 -25.79,-17.173 -41.435,-17.173 -15.644,0 -30.357,6.099 -41.433,17.174 -0.002,0.002 -0.004,0.004 -0.006,0.008 -7.82,7.817 -18.204,12.121 -29.243,12.121 -11.031,0 -21.41,-4.3 -29.227,-12.107 -0.008,-0.008 -0.013,-0.015 -0.021,-0.023 -11.075,-11.074 -25.79,-17.173 -41.435,-17.173 -15.644,0 -30.358,6.099 -41.433,17.174 -0.002,0.002 -0.004,0.004 -0.006,0.008 -16.123,16.119 -42.351,16.119 -58.48,0.008 -0.004,-0.004 -0.009,-0.01 -0.013,-0.014 -11.074,-11.075 -25.788,-17.174 -41.432,-17.174 -15.644,0 -30.357,6.099 -41.434,17.173 -0.008,0.008 -0.013,0.015 -0.02,0.023 -7.818,7.807 -18.195,12.107 -29.227,12.107 -11.042,0 -21.429,-4.307 -29.249,-12.128 -3.365,-3.363 -8.819,-3.363 -12.185,0 -3.364,3.365 -3.364,8.819 0,12.185 11.075,11.074 25.79,17.173 41.435,17.173 15.645,0 30.357,-6.099 41.433,-17.174 0.002,-0.002 0.004,-0.005 0.006,-0.008 7.82,-7.817 18.204,-12.121 29.241,-12.121 11.034,0 21.415,4.302 29.234,12.115 0.004,0.004 0.009,0.011 0.014,0.015 11.423,11.422 26.428,17.133 41.435,17.133 15.005,0 30.01,-5.711 41.434,-17.133 0.008,-0.008 0.013,-0.015 0.02,-0.023 7.817,-7.807 18.195,-12.107 29.226,-12.107 11.039,0 21.423,4.305 29.243,12.121 0.002,0.002 0.004,0.005 0.006,0.008 11.074,11.075 25.788,17.174 41.433,17.174 15.644,0 30.358,-6.099 41.435,-17.173 0.008,-0.008 0.013,-0.015 0.02,-0.023 7.817,-7.807 18.195,-12.107 29.226,-12.107 11.039,0 21.423,4.305 29.242,12.121 0.002,0.002 0.004,0.005 0.006,0.008 11.074,11.075 25.788,17.174 41.433,17.174 15.644,0 30.358,-6.099 41.433,-17.174 3.364,-3.364 3.364,-8.819 -10e-4,-12.184 -3.359,-3.365 -8.814,-3.366 -12.18,-10e-4 z" /></g></g><g
     id="g33"
     transform="translate(0,-422.00905)" /><g
     id="g35"
     transform="translate(0,-422.00905)" /><g
     id="g37"
     transform="translate(0,-422.00905)" /><g
     id="g39"
     transform="translate(0,-422.00905)" /><g
     id="g41"
     transform="translate(0,-422.00905)" /><g
     id="g43"
     transform="translate(0,-422.00905)" /><g
     id="g45"
     transform="translate(0,-422.00905)" /><g
     id="g47"
     transform="translate(0,-422.00905)" /><g
     id="g49"
     transform="translate(0,-422.00905)" /><g
     id="g51"
     transform="translate(0,-422.00905)" /><g
     id="g53"
     transform="translate(0,-422.00905)" /><g
     id="g55"
     transform="translate(0,-422.00905)" /><g
     id="g57"
     transform="translate(0,-422.00905)" /><g
     id="g59"
     transform="translate(0,-422.00905)" /><g
     id="g61"
     transform="translate(0,-422.00905)" /></svg>