<?xml version="1.0" encoding="UTF-8" standalone="no"?>
<!-- Generator: Adobe Illustrator 19.0.0, SVG Export Plug-In . SVG Version: 6.00 Build 0)  -->

<svg
   xmlns:dc="http://purl.org/dc/elements/1.1/"
   xmlns:cc="http://creativecommons.org/ns#"
   xmlns:rdf="http://www.w3.org/1999/02/22-rdf-syntax-ns#"
   xmlns:svg="http://www.w3.org/2000/svg"
   xmlns="http://www.w3.org/2000/svg"
   xmlns:sodipodi="http://sodipodi.sourceforge.net/DTD/sodipodi-0.dtd"
   xmlns:inkscape="http://www.inkscape.org/namespaces/inkscape"
   version="1.1"
   id="Layer_1"
   x="0px"
   y="0px"
   viewBox="0 0 90.001934 90.001935"
   xml:space="preserve"
   width="90"
   height="90"
   inkscape:version="0.91 r13725"
   sodipodi:docname="waves-rough.svg"><metadata
     id="metadata67"><rdf:RDF><cc:Work
         rdf:about=""><dc:format>image/svg+xml</dc:format><dc:type
           rdf:resource="http://purl.org/dc/dcmitype/StillImage" /><dc:title /></cc:Work></rdf:RDF></metadata><defs
     id="defs65" /><sodipodi:namedview
     pagecolor="#ffffff"
     bordercolor="#666666"
     borderopacity="1"
     objecttolerance="10"
     gridtolerance="10"
     guidetolerance="10"
     inkscape:pageopacity="0"
     inkscape:pageshadow="2"
     inkscape:window-width="1366"
     inkscape:window-height="705"
     id="namedview63"
     showgrid="false"
     inkscape:zoom="12.725073"
     inkscape:cx="35.593621"
     inkscape:cy="46.041396"
     inkscape:window-x="0"
     inkscape:window-y="33"
     inkscape:window-maximized="1"
     inkscape:current-layer="Layer_1" /><g
     id="g33"
     transform="translate(0,-422.00905)" /><g
     id="g35"
     transform="translate(0,-422.00905)" /><g
     id="g37"
     transform="translate(0,-422.00905)" /><g
     id="g39"
     transform="translate(0,-422.00905)" /><g
     id="g41"
     transform="translate(0,-422.00905)" /><g
     id="g43"
     transform="translate(0,-422.00905)" /><g
     id="g45"
     transform="translate(0,-422.00905)" /><g
     id="g47"
     transform="translate(0,-422.00905)" /><g
     id="g49"
     transform="translate(0,-422.00905)" /><g
     id="g51"
     transform="translate(0,-422.00905)" /><g
     id="g53"
     transform="translate(0,-422.00905)" /><g
     id="g55"
     transform="translate(0,-422.00905)" /><g
     id="g57"
     transform="translate(0,-422.00905)" /><g
     id="g59"
     transform="translate(0,-422.00905)" /><g
     id="g61"
     transform="translate(0,-422.00905)" /><g
     transform="matrix(1.3770307,0,0,1.3770307,-1074.6597,-878.62288)"
     id="g4301"><rect
       y="639.74133"
       x="781.25671"
       height="62.835659"
       width="62.835659"
       id="rect4276"
       style="opacity:1;fill:none;fill-opacity:1;stroke:none;stroke-width:6;stroke-linecap:butt;stroke-linejoin:miter;stroke-miterlimit:4;stroke-dasharray:none;stroke-dashoffset:0;stroke-opacity:1" /><g
       transform="matrix(0.87977862,0,0,0.87977862,538.71004,121.24857)"
       id="g4153"><path
         style="color:#000000;font-style:normal;font-variant:normal;font-weight:normal;font-stretch:normal;font-size:medium;line-height:normal;font-family:sans-serif;text-indent:0;text-align:start;text-decoration:none;text-decoration-line:none;text-decoration-style:solid;text-decoration-color:#000000;letter-spacing:normal;word-spacing:normal;text-transform:none;direction:ltr;block-progression:tb;writing-mode:lr-tb;baseline-shift:baseline;text-anchor:start;white-space:normal;clip-rule:nonzero;display:inline;overflow:visible;visibility:visible;opacity:1;isolation:auto;mix-blend-mode:normal;color-interpolation:sRGB;color-interpolation-filters:linearRGB;solid-color:#000000;solid-opacity:1;fill:#ff0000;fill-opacity:1;fill-rule:evenodd;stroke:none;stroke-width:4;stroke-linecap:round;stroke-linejoin:round;stroke-miterlimit:4;stroke-dasharray:none;stroke-dashoffset:0;stroke-opacity:1;color-rendering:auto;image-rendering:auto;shape-rendering:auto;text-rendering:auto;enable-background:accumulate"
         d="m 317.86523,610.73828 a 2.0002,2.0002 0 0 0 -1.33593,0.57422 c -3.23649,3.18722 -4.91281,3.40103 -6.40039,3.08984 -1.48758,-0.31119 -3.12882,-1.67321 -5.42383,-2.73828 a 2.0002,2.0002 0 0 0 -1.81446,0.0664 c -2.05024,1.14045 -3.43482,2.30111 -4.94335,2.61328 -1.50854,0.31217 -3.51557,0.0795 -7.26368,-2.51172 a 2.0002,2.0002 0 0 0 -2.50195,0.18359 c -1.20618,1.12569 -3.62413,1.73624 -6.29687,2.81641 a 2.0002,2.0002 0 1 0 1.49804,3.70899 c 1.83978,-0.74354 4.17603,-1.28091 6.26563,-2.67579 3.6508,2.24517 6.64167,2.90714 9.10937,2.39649 2.25589,-0.46683 3.78716,-1.57163 5.14649,-2.45117 1.40548,0.82737 3.03888,2.01103 5.40429,2.50586 2.50712,0.52446 5.49764,-0.35239 8.74805,-3.08985 1.87702,1.34362 3.91219,2.55546 6.40039,2.90235 2.58667,0.36061 5.45508,-0.33094 8.49219,-2.18555 0.66654,0.8137 1.40669,1.52833 2.30078,2.00976 1.49507,0.80505 3.25118,1.0114 4.99805,0.70313 a 2.0002,2.0002 0 1 0 -0.69532,-3.93945 c -1.05067,0.18541 -1.76202,0.0617 -2.40625,-0.28516 -0.64422,-0.34689 -1.28916,-0.98955 -1.89648,-2.13672 a 2.0002,2.0002 0 0 0 -2.96875,-0.66211 c -3.12049,2.34799 -5.32983,2.80585 -7.27148,2.53516 -1.94166,-0.27069 -3.83066,-1.42278 -5.8418,-3.00391 a 2.0002,2.0002 0 0 0 -1.30274,-0.42578 z"
         id="path3347"
         inkscape:connector-curvature="0" /><path
         style="color:#000000;font-style:normal;font-variant:normal;font-weight:normal;font-stretch:normal;font-size:medium;line-height:normal;font-family:sans-serif;text-indent:0;text-align:start;text-decoration:none;text-decoration-line:none;text-decoration-style:solid;text-decoration-color:#000000;letter-spacing:normal;word-spacing:normal;text-transform:none;direction:ltr;block-progression:tb;writing-mode:lr-tb;baseline-shift:baseline;text-anchor:start;white-space:normal;clip-rule:nonzero;display:inline;overflow:visible;visibility:visible;opacity:1;isolation:auto;mix-blend-mode:normal;color-interpolation:sRGB;color-interpolation-filters:linearRGB;solid-color:#000000;solid-opacity:1;fill:#ff0000;fill-opacity:1;fill-rule:evenodd;stroke:none;stroke-width:4;stroke-linecap:round;stroke-linejoin:round;stroke-miterlimit:4;stroke-dasharray:none;stroke-dashoffset:0;stroke-opacity:1;color-rendering:auto;image-rendering:auto;shape-rendering:auto;text-rendering:auto;enable-background:accumulate"
         d="m 317.86523,621.35156 a 2.0002,2.0002 0 0 0 -1.33593,0.57422 c -3.23649,3.18722 -4.91281,3.40103 -6.40039,3.08984 -1.48758,-0.31118 -3.12882,-1.67321 -5.42383,-2.73828 a 2.0002,2.0002 0 0 0 -1.81446,0.0664 c -2.05024,1.14045 -3.43482,2.30307 -4.94335,2.61523 -1.50854,0.31217 -3.51557,0.0795 -7.26368,-2.51171 a 2.0002,2.0002 0 0 0 -2.50195,0.18164 c -1.20618,1.12568 -3.62413,1.73819 -6.29687,2.81836 a 2.0002,2.0002 0 1 0 1.49804,3.70703 c 1.84016,-0.74369 4.17766,-1.27829 6.26758,-2.67383 3.64989,2.24416 6.64016,2.90509 9.10742,2.39453 2.25636,-0.46692 3.78698,-1.57157 5.14649,-2.45117 1.40558,0.82737 3.03858,2.01292 5.40429,2.50781 2.50698,0.52444 5.49784,-0.35274 8.74805,-3.08984 1.87702,1.34362 3.91219,2.55545 6.40039,2.90234 2.58667,0.36062 5.45508,-0.33093 8.49219,-2.18555 0.66654,0.81371 1.40669,1.52833 2.30078,2.00977 1.49507,0.80504 3.25118,1.00945 4.99805,0.70117 a 2.0002,2.0002 0 1 0 -0.69532,-3.9375 c -1.05067,0.18542 -1.76202,0.0617 -2.40625,-0.28515 -0.64422,-0.3469 -1.28916,-0.99151 -1.89648,-2.13868 a 2.0002,2.0002 0 0 0 -2.96875,-0.66211 c -3.12049,2.34799 -5.32983,2.80585 -7.27148,2.53516 -1.94166,-0.27069 -3.83066,-1.42083 -5.8418,-3.00195 a 2.0002,2.0002 0 0 0 -1.30274,-0.42774 z"
         id="path4149"
         inkscape:connector-curvature="0" /><path
         style="color:#000000;font-style:normal;font-variant:normal;font-weight:normal;font-stretch:normal;font-size:medium;line-height:normal;font-family:sans-serif;text-indent:0;text-align:start;text-decoration:none;text-decoration-line:none;text-decoration-style:solid;text-decoration-color:#000000;letter-spacing:normal;word-spacing:normal;text-transform:none;direction:ltr;block-progression:tb;writing-mode:lr-tb;baseline-shift:baseline;text-anchor:start;white-space:normal;clip-rule:nonzero;display:inline;overflow:visible;visibility:visible;opacity:1;isolation:auto;mix-blend-mode:normal;color-interpolation:sRGB;color-interpolation-filters:linearRGB;solid-color:#000000;solid-opacity:1;fill:#ff0000;fill-opacity:1;fill-rule:evenodd;stroke:none;stroke-width:4;stroke-linecap:round;stroke-linejoin:round;stroke-miterlimit:4;stroke-dasharray:none;stroke-dashoffset:0;stroke-opacity:1;color-rendering:auto;image-rendering:auto;shape-rendering:auto;text-rendering:auto;enable-background:accumulate"
         d="m 317.86523,631.7207 a 2.0002,2.0002 0 0 0 -1.33593,0.57227 c -3.23649,3.18722 -4.91281,3.40103 -6.40039,3.08984 -1.48758,-0.31119 -3.12882,-1.67322 -5.42383,-2.73828 a 2.0002,2.0002 0 0 0 -1.81446,0.0664 c -2.05024,1.14045 -3.43482,2.30306 -4.94335,2.61523 -1.50854,0.31217 -3.51557,0.0795 -7.26368,-2.51172 a 2.0002,2.0002 0 0 0 -2.50195,0.18164 c -1.20618,1.12569 -3.62413,1.73819 -6.29687,2.81836 a 2.0002,2.0002 0 1 0 1.49804,3.70703 c 1.84016,-0.74368 4.17766,-1.27828 6.26758,-2.67382 3.64989,2.24416 6.64016,2.90509 9.10742,2.39453 2.25636,-0.46692 3.78698,-1.57157 5.14649,-2.45117 1.40558,0.82736 3.03858,2.01292 5.40429,2.50781 2.50712,0.52447 5.49764,-0.35239 8.74805,-3.08985 1.87702,1.34362 3.91219,2.55546 6.40039,2.90235 2.58667,0.36061 5.45508,-0.33093 8.49219,-2.18555 0.66654,0.8137 1.40669,1.52833 2.30078,2.00977 1.49507,0.80504 3.25118,1.00944 4.99805,0.70117 a 2.0002,2.0002 0 1 0 -0.69532,-3.9375 c -1.05067,0.18541 -1.76202,0.0617 -2.40625,-0.28516 -0.64422,-0.34689 -1.28916,-0.98955 -1.89648,-2.13672 a 2.0002,2.0002 0 0 0 -2.96875,-0.66406 c -3.12049,2.34799 -5.32983,2.80585 -7.27148,2.53516 -1.94166,-0.2707 -3.83066,-1.42083 -5.8418,-3.00196 a 2.0002,2.0002 0 0 0 -1.30274,-0.42578 z"
         id="path4151"
         inkscape:connector-curvature="0" /></g></g></svg>