<?xml version="1.0" encoding="UTF-8" standalone="no"?>
<!-- Generator: Adobe Illustrator 19.0.0, SVG Export Plug-In . SVG Version: 6.00 Build 0)  -->

<svg
   xmlns:dc="http://purl.org/dc/elements/1.1/"
   xmlns:cc="http://creativecommons.org/ns#"
   xmlns:rdf="http://www.w3.org/1999/02/22-rdf-syntax-ns#"
   xmlns:svg="http://www.w3.org/2000/svg"
   xmlns="http://www.w3.org/2000/svg"
   xmlns:sodipodi="http://sodipodi.sourceforge.net/DTD/sodipodi-0.dtd"
   xmlns:inkscape="http://www.inkscape.org/namespaces/inkscape"
   version="1.1"
   id="Layer_1"
   x="0px"
   y="0px"
   viewBox="0 0 90.001934 90.001935"
   xml:space="preserve"
   width="90"
   height="90"
   inkscape:version="0.91 r13725"
   sodipodi:docname="waves.svg"><metadata
     id="metadata67"><rdf:RDF><cc:Work
         rdf:about=""><dc:format>image/svg+xml</dc:format><dc:type
           rdf:resource="http://purl.org/dc/dcmitype/StillImage" /><dc:title /></cc:Work></rdf:RDF></metadata><defs
     id="defs65" /><sodipodi:namedview
     pagecolor="#ffffff"
     bordercolor="#666666"
     borderopacity="1"
     objecttolerance="10"
     gridtolerance="10"
     guidetolerance="10"
     inkscape:pageopacity="0"
     inkscape:pageshadow="2"
     inkscape:window-width="1366"
     inkscape:window-height="705"
     id="namedview63"
     showgrid="false"
     inkscape:zoom="3.039371"
     inkscape:cx="74.30762"
     inkscape:cy="34.157259"
     inkscape:window-x="0"
     inkscape:window-y="33"
     inkscape:window-maximized="1"
     inkscape:current-layer="Layer_1" /><g
     id="g33"
     transform="translate(0,-422.00905)" /><g
     id="g35"
     transform="translate(0,-422.00905)" /><g
     id="g37"
     transform="translate(0,-422.00905)" /><g
     id="g39"
     transform="translate(0,-422.00905)" /><g
     id="g41"
     transform="translate(0,-422.00905)" /><g
     id="g43"
     transform="translate(0,-422.00905)" /><g
     id="g45"
     transform="translate(0,-422.00905)" /><g
     id="g47"
     transform="translate(0,-422.00905)" /><g
     id="g49"
     transform="translate(0,-422.00905)" /><g
     id="g51"
     transform="translate(0,-422.00905)" /><g
     id="g53"
     transform="translate(0,-422.00905)" /><g
     id="g55"
     transform="translate(0,-422.00905)" /><g
     id="g57"
     transform="translate(0,-422.00905)" /><g
     id="g59"
     transform="translate(0,-422.00905)" /><g
     id="g61"
     transform="translate(0,-422.00905)" /><g
     transform="matrix(1.3770307,0,0,1.3770307,-1074.6597,-878.62288)"
     id="g4301"><rect
       y="639.74133"
       x="781.25671"
       height="62.835659"
       width="62.835659"
       id="rect4276"
       style="opacity:1;fill:none;fill-opacity:1;stroke:none;stroke-width:6;stroke-linecap:butt;stroke-linejoin:miter;stroke-miterlimit:4;stroke-dasharray:none;stroke-dashoffset:0;stroke-opacity:1" /><g
       transform="matrix(0.87977862,0,0,0.87977862,538.71004,121.24857)"
       id="g4153"><path
         style="opacity:1;fill:none;fill-opacity:1;fill-rule:evenodd;stroke:#ffda44;stroke-width:4;stroke-linecap:round;stroke-linejoin:round;stroke-miterlimit:4;stroke-dasharray:none;stroke-opacity:1"
         d="m 282.63385,616.68645 c 2.44468,-0.988 5.13437,-1.55034 6.91157,-3.20894 7.99751,5.52898 10.71369,2.00425 14.31682,0 3.85052,1.78694 7.07721,6.14579 14.06998,-0.74053 4.21475,3.31357 8.73977,5.61876 15.55103,0.49368 1.48105,2.79754 3.62035,3.94948 6.41789,3.45579"
         id="path3347"
         inkscape:connector-curvature="0"
         sodipodi:nodetypes="cccccc" /><path
         sodipodi:nodetypes="cccccc"
         inkscape:connector-curvature="0"
         id="path4149"
         d="m 282.63385,627.30065 c 2.44468,-0.988 5.13437,-1.55034 6.91157,-3.20894 7.99751,5.52898 10.71369,2.00425 14.31682,0 3.85052,1.78694 7.07721,6.14579 14.06998,-0.74053 4.21475,3.31357 8.73977,5.61876 15.55103,0.49368 1.48105,2.79754 3.62035,3.94948 6.41789,3.45579"
         style="opacity:1;fill:none;fill-opacity:1;fill-rule:evenodd;stroke:#ffda44;stroke-width:4;stroke-linecap:round;stroke-linejoin:round;stroke-miterlimit:4;stroke-dasharray:none;stroke-opacity:1" /><path
         style="opacity:1;fill:none;fill-opacity:1;fill-rule:evenodd;stroke:#ffda44;stroke-width:4;stroke-linecap:round;stroke-linejoin:round;stroke-miterlimit:4;stroke-dasharray:none;stroke-opacity:1"
         d="m 282.63385,637.66801 c 2.44468,-0.988 5.13437,-1.55034 6.91157,-3.20894 7.99751,5.52898 10.71369,2.00425 14.31682,0 3.85052,1.78694 7.07721,6.14579 14.06998,-0.74053 4.21475,3.31357 8.73977,5.61876 15.55103,0.49368 1.48105,2.79754 3.62035,3.94948 6.41789,3.45579"
         id="path4151"
         inkscape:connector-curvature="0"
         sodipodi:nodetypes="cccccc" /></g></g></svg>