<?xml version="1.0" encoding="UTF-8" standalone="no"?>
<!-- Generator: Adobe Illustrator 19.0.0, SVG Export Plug-In . SVG Version: 6.00 Build 0)  -->

<svg
   xmlns:dc="http://purl.org/dc/elements/1.1/"
   xmlns:cc="http://creativecommons.org/ns#"
   xmlns:rdf="http://www.w3.org/1999/02/22-rdf-syntax-ns#"
   xmlns:svg="http://www.w3.org/2000/svg"
   xmlns="http://www.w3.org/2000/svg"
   xmlns:sodipodi="http://sodipodi.sourceforge.net/DTD/sodipodi-0.dtd"
   xmlns:inkscape="http://www.inkscape.org/namespaces/inkscape"
   version="1.1"
   id="Layer_1"
   x="0px"
   y="0px"
   viewBox="0 0 90.000176 90.000176"
   xml:space="preserve"
   width="90"
   height="90"
   inkscape:version="0.91 r13725"
   sodipodi:docname="wind.svg"><metadata
     id="metadata55"><rdf:RDF><cc:Work
         rdf:about=""><dc:format>image/svg+xml</dc:format><dc:type
           rdf:resource="http://purl.org/dc/dcmitype/StillImage" /><dc:title /></cc:Work></rdf:RDF></metadata><defs
     id="defs53" /><sodipodi:namedview
     pagecolor="#ffffff"
     bordercolor="#666666"
     borderopacity="1"
     objecttolerance="10"
     gridtolerance="10"
     guidetolerance="10"
     inkscape:pageopacity="0"
     inkscape:pageshadow="2"
     inkscape:window-width="1366"
     inkscape:window-height="705"
     id="namedview51"
     showgrid="false"
     inkscape:zoom="2.925109"
     inkscape:cx="59.99909"
     inkscape:cy="21.12232"
     inkscape:window-x="0"
     inkscape:window-y="33"
     inkscape:window-maximized="1"
     inkscape:current-layer="Layer_1" /><g
     id="g3"
     transform="matrix(0.21335389,0,0,0.21335389,-8.7409252,18.130446)"
     style="fill:#ffda44;fill-opacity:1"><g
       id="g5"
       style="fill:#ffda44;fill-opacity:1"><g
         id="g7"
         style="fill:#ffda44;fill-opacity:1"><path
           d="m 119.884,133.707 258.977,0 c 4.754,0 8.609,-3.855 8.609,-8.609 0,-4.755 -3.855,-8.609 -8.609,-8.609 l -258.977,0 c -4.754,0 -8.609,3.854 -8.609,8.609 0,4.755 3.855,8.609 8.609,8.609 z"
           id="path11"
           inkscape:connector-curvature="0"
           style="fill:#ffda44;fill-opacity:1" /><path
           d="m 128.54196,165.88981 7.197,0 c 4.754,0 8.609,-3.855 8.609,-8.609 0,-4.755 -3.855,-8.609 -8.609,-8.609 l -7.197,0 c -4.754,0 -8.609,3.854 -8.609,8.609 0,4.755 3.855,8.609 8.609,8.609 z"
           id="path13"
           inkscape:connector-curvature="0"
           style="fill:#ffda44;fill-opacity:1" /><path
           d="m 263.33696,221.90881 c -0.356,-0.045 -0.716,-0.075 -1.084,-0.075 -15.423,0 -27.97,-12.548 -27.97,-27.972 0,-4.754 -3.855,-8.609 -8.609,-8.609 -4.754,0 -8.609,3.855 -8.609,8.609 0,24.409 19.456,44.347 43.673,45.151 0.493,0.087 0.998,0.141 1.515,0.141 24.945,0 45.24,-20.295 45.24,-45.242 0,-24.946 -20.294,-45.241 -45.24,-45.241 l -98.804,0 c -4.754,0 -8.609,3.854 -8.609,8.609 0,4.754 3.855,8.609 8.609,8.609 l 98.804,0 c 15.451,0 28.022,12.571 28.022,28.023 0.002,15.09 -11.986,27.425 -26.938,27.997 z"
           id="path15"
           inkscape:connector-curvature="0"
           style="fill:#ffda44;fill-opacity:1" /><path
           d="m 196.47246,103.20681 150.786,0 c 24.945,0 45.24,-20.294995 45.24,-45.241995 0,-24.945 -20.294,-45.24 -45.239,-45.24 -0.518,0 -1.022,0.054 -1.515,0.141 -24.217,0.804 -43.673,20.742 -43.673,45.151 0,4.754 3.855,8.609 8.609,8.609 4.754,0 8.609,-3.855 8.609,-8.609 0,-15.424 12.547,-27.972 27.97,-27.972 0.368,0 0.727,-0.031 1.084,-0.075 14.95,0.573 26.938,12.907 26.938,27.996 0,15.452 -12.571,28.024 -28.022,28.024 l -150.786,0 c -4.754,0 -8.609,3.855 -8.609,8.609 -0.001,4.754 3.854,8.607995 8.608,8.607995 z"
           id="path17"
           inkscape:connector-curvature="0"
           style="fill:#ffda44;fill-opacity:1"
           sodipodi:nodetypes="sssscsssscssscs" /></g></g></g><g
     id="g21"
     transform="translate(0,-422.0008)" /><g
     id="g23"
     transform="translate(0,-422.0008)" /><g
     id="g25"
     transform="translate(0,-422.0008)" /><g
     id="g27"
     transform="translate(0,-422.0008)" /><g
     id="g29"
     transform="translate(0,-422.0008)" /><g
     id="g31"
     transform="translate(0,-422.0008)" /><g
     id="g33"
     transform="translate(0,-422.0008)" /><g
     id="g35"
     transform="translate(0,-422.0008)" /><g
     id="g37"
     transform="translate(0,-422.0008)" /><g
     id="g39"
     transform="translate(0,-422.0008)" /><g
     id="g41"
     transform="translate(0,-422.0008)" /><g
     id="g43"
     transform="translate(0,-422.0008)" /><g
     id="g45"
     transform="translate(0,-422.0008)" /><g
     id="g47"
     transform="translate(0,-422.0008)" /><g
     id="g49"
     transform="translate(0,-422.0008)" /></svg>