<?xml version="1.0" encoding="UTF-8" standalone="no"?>
<!-- Generator: Adobe Illustrator 19.0.0, SVG Export Plug-In . SVG Version: 6.00 Build 0)  -->

<svg
   xmlns:dc="http://purl.org/dc/elements/1.1/"
   xmlns:cc="http://creativecommons.org/ns#"
   xmlns:rdf="http://www.w3.org/1999/02/22-rdf-syntax-ns#"
   xmlns:svg="http://www.w3.org/2000/svg"
   xmlns="http://www.w3.org/2000/svg"
   xmlns:sodipodi="http://sodipodi.sourceforge.net/DTD/sodipodi-0.dtd"
   xmlns:inkscape="http://www.inkscape.org/namespaces/inkscape"
   version="1.1"
   id="Layer_1"
   x="0px"
   y="0px"
   viewBox="0 0 90.000176 90.000176"
   xml:space="preserve"
   width="90"
   height="90"
   inkscape:version="0.91 r13725"
   sodipodi:docname="wind.svg"><metadata
     id="metadata55"><rdf:RDF><cc:Work
         rdf:about=""><dc:format>image/svg+xml</dc:format><dc:type
           rdf:resource="http://purl.org/dc/dcmitype/StillImage" /><dc:title /></cc:Work></rdf:RDF></metadata><defs
     id="defs53" /><sodipodi:namedview
     pagecolor="#ffffff"
     bordercolor="#666666"
     borderopacity="1"
     objecttolerance="10"
     gridtolerance="10"
     guidetolerance="10"
     inkscape:pageopacity="0"
     inkscape:pageshadow="2"
     inkscape:window-width="1366"
     inkscape:window-height="705"
     id="namedview51"
     showgrid="false"
     inkscape:zoom="6.2190209"
     inkscape:cx="33.226116"
     inkscape:cy="41.031685"
     inkscape:window-x="0"
     inkscape:window-y="33"
     inkscape:window-maximized="1"
     inkscape:current-layer="Layer_1" /><g
     id="g21"
     transform="translate(0,-422.0008)" /><g
     id="g23"
     transform="translate(0,-422.0008)" /><g
     id="g25"
     transform="translate(0,-422.0008)" /><g
     id="g27"
     transform="translate(0,-422.0008)" /><g
     id="g29"
     transform="translate(0,-422.0008)" /><g
     id="g31"
     transform="translate(0,-422.0008)" /><g
     id="g33"
     transform="translate(0,-422.0008)" /><g
     id="g35"
     transform="translate(0,-422.0008)" /><g
     id="g37"
     transform="translate(0,-422.0008)" /><g
     id="g39"
     transform="translate(0,-422.0008)" /><g
     id="g41"
     transform="translate(0,-422.0008)" /><g
     id="g43"
     transform="translate(0,-422.0008)" /><g
     id="g45"
     transform="translate(0,-422.0008)" /><g
     id="g47"
     transform="translate(0,-422.0008)" /><g
     id="g49"
     transform="translate(0,-422.0008)" /><g
     transform="matrix(1.3665316,0,0,1.3665316,-1160.1048,-872.56421)"
     id="g4308"><rect
       style="opacity:1;fill:none;fill-opacity:1;stroke:none;stroke-width:6;stroke-linecap:butt;stroke-linejoin:miter;stroke-miterlimit:4;stroke-dasharray:none;stroke-dashoffset:0;stroke-opacity:1"
       id="rect4278"
       width="62.835659"
       height="62.835659"
       x="850.02686"
       y="639.74133" /><g
       transform="matrix(0.94759956,0,0,0.94759956,466.20288,74.72399)"
       style="stroke:#ffda44;stroke-opacity:1"
       id="g4162"><path
         style="color:#000000;font-style:normal;font-variant:normal;font-weight:normal;font-stretch:normal;font-size:medium;line-height:normal;font-family:sans-serif;text-indent:0;text-align:start;text-decoration:none;text-decoration-line:none;text-decoration-style:solid;text-decoration-color:#000000;letter-spacing:normal;word-spacing:normal;text-transform:none;direction:ltr;block-progression:tb;writing-mode:lr-tb;baseline-shift:baseline;text-anchor:start;white-space:normal;clip-rule:nonzero;display:inline;overflow:visible;visibility:visible;opacity:1;isolation:auto;mix-blend-mode:normal;color-interpolation:sRGB;color-interpolation-filters:linearRGB;solid-color:#000000;solid-opacity:1;fill:#ffda44;fill-opacity:1;fill-rule:evenodd;stroke:none;stroke-width:4;stroke-linecap:butt;stroke-linejoin:miter;stroke-miterlimit:4;stroke-dasharray:none;stroke-dashoffset:0;stroke-opacity:1;color-rendering:auto;image-rendering:auto;shape-rendering:auto;text-rendering:auto;enable-background:accumulate"
         d="m 457.99609,613.28125 c -0.6667,-0.0462 -1.35092,0.006 -2.04101,0.17578 -2.76036,0.67742 -5.07569,3.20711 -6.32617,7.38281 l 3.83203,1.14844 c 1.00597,-3.35924 2.37647,-4.3837 3.44726,-4.64648 1.07079,-0.26278 2.3735,0.21429 3.40039,1.27734 1.0269,1.06305 1.5803,2.55866 1.34375,3.82227 -0.2289,1.22281 -1.16165,2.54832 -3.94531,3.60547 l -48.05273,0 0,4 48.86718,0 0.32618,-0.11524 c 3.91484,-1.39454 6.21268,-3.95662 6.73632,-6.75391 0.52364,-2.79729 -0.59973,-5.47585 -2.39843,-7.33789 -1.34903,-1.39652 -3.18935,-2.42014 -5.18946,-2.55859 z"
         id="path4158"
         inkscape:connector-curvature="0" /><path
         style="color:#000000;font-style:normal;font-variant:normal;font-weight:normal;font-stretch:normal;font-size:medium;line-height:normal;font-family:sans-serif;text-indent:0;text-align:start;text-decoration:none;text-decoration-line:none;text-decoration-style:solid;text-decoration-color:#000000;letter-spacing:normal;word-spacing:normal;text-transform:none;direction:ltr;block-progression:tb;writing-mode:lr-tb;baseline-shift:baseline;text-anchor:start;white-space:normal;clip-rule:nonzero;display:inline;overflow:visible;visibility:visible;opacity:1;isolation:auto;mix-blend-mode:normal;color-interpolation:sRGB;color-interpolation-filters:linearRGB;solid-color:#000000;solid-opacity:1;fill:#ffda44;fill-opacity:1;fill-rule:evenodd;stroke:none;stroke-width:4;stroke-linecap:butt;stroke-linejoin:miter;stroke-miterlimit:4;stroke-dasharray:none;stroke-dashoffset:0;stroke-opacity:1;color-rendering:auto;image-rendering:auto;shape-rendering:auto;text-rendering:auto;enable-background:accumulate"
         d="m 421.69727,634.33008 0,4 29.78125,0 c 1.40173,0.55951 1.69879,1.10358 1.76171,1.58008 0.0673,0.50994 -0.22918,1.32294 -0.82812,1.91406 -0.59894,0.59112 -1.31954,0.81236 -1.74414,0.72461 -0.4246,-0.0877 -1.0711,-0.39569 -1.64453,-2.31055 l -3.83203,1.14844 c 0.83294,2.78142 2.57383,4.64729 4.66797,5.08008 2.09413,0.43278 4.02461,-0.47762 5.36132,-1.79688 1.33671,-1.31926 2.25992,-3.19666 1.98438,-5.2832 -0.27555,-2.08654 -1.96428,-4.00474 -4.59375,-4.94141 l -0.32617,-0.11523 -30.58789,0 z"
         id="path4160"
         inkscape:connector-curvature="0" /></g></g></svg>